<?xml version="1.0" standalone="no"?>
<!DOCTYPE svg PUBLIC "-//W3C//DTD SVG 20010904//EN"
 "http://www.w3.org/TR/2001/REC-SVG-20010904/DTD/svg10.dtd">
<svg version="1.0" xmlns="http://www.w3.org/2000/svg"
 width="512.000000pt" height="512.000000pt" viewBox="0 0 512.000000 512.000000"
 preserveAspectRatio="xMidYMid meet">

<g transform="translate(0.000000,512.000000) scale(0.100000,-0.100000)"
fill="#000000" stroke="none">
<path d="M2275 4674 c-923 -129 -1650 -832 -1818 -1759 -18 -101 -22 -157 -22
-355 0 -265 15 -374 79 -596 206 -714 795 -1283 1518 -1468 204 -52 366 -70
593 -63 270 8 477 49 715 143 634 251 1116 798 1284 1456 186 728 -24 1497
-554 2028 -318 320 -690 515 -1145 601 -149 28 -491 35 -650 13z m424 -414
c412 -37 779 -209 1070 -501 663 -667 661 -1737 -5 -2403 -462 -462 -1138
-620 -1753 -410 -364 124 -702 394 -900 717 -271 444 -330 962 -165 1446 216
631 799 1091 1458 1150 132 12 168 12 295 1z"/>
<path d="M2490 3188 c-27 -7 -127 -102 -438 -411 -222 -221 -412 -416 -423
-433 -43 -70 -34 -169 23 -238 57 -70 162 -96 246 -61 25 11 142 120 350 328
l312 312 313 -312 c207 -208 324 -317 349 -328 52 -21 130 -19 177 5 108 55
152 197 92 294 -11 17 -201 212 -423 433 -340 339 -409 403 -443 412 -48 13
-87 13 -135 -1z"/>
</g>
</svg>
