<?xml version="1.0" standalone="no"?>
<!DOCTYPE svg PUBLIC "-//W3C//DTD SVG 20010904//EN"
 "http://www.w3.org/TR/2001/REC-SVG-20010904/DTD/svg10.dtd">
<svg version="1.0" xmlns="http://www.w3.org/2000/svg"
 width="512.000000pt" height="512.000000pt" viewBox="0 0 512.000000 512.000000"
 preserveAspectRatio="xMidYMid meet">

<g transform="translate(0.000000,512.000000) scale(0.100000,-0.100000)"
fill="#000000" stroke="none">
<path d="M2452 4320 c-143 -26 -301 -119 -389 -229 -205 -259 -186 -620 46
-851 135 -135 301 -198 490 -187 164 10 293 68 412 187 296 296 235 776 -126
998 -114 70 -301 105 -433 82z"/>
<path d="M1185 3838 c-172 -33 -324 -178 -370 -355 -65 -249 103 -524 355
-582 58 -13 162 -13 220 0 208 48 372 255 369 469 -3 299 -279 525 -574 468z"/>
<path d="M3745 3838 c-172 -33 -324 -178 -370 -355 -65 -249 103 -524 355
-582 58 -13 162 -13 220 0 208 48 372 255 369 469 -3 299 -279 525 -574 468z"/>
<path d="M2400 2875 c-284 -45 -555 -211 -760 -466 -167 -208 -275 -437 -332
-703 -16 -77 -21 -137 -22 -251 0 -137 2 -156 26 -223 36 -100 81 -173 153
-246 73 -75 154 -125 260 -163 l80 -28 755 0 755 0 80 28 c227 80 378 247 429
474 40 178 -3 467 -108 715 -197 470 -580 799 -1003 863 -117 18 -199 18 -313
0z"/>
<path d="M1175 2723 c-286 -40 -557 -258 -719 -579 -108 -215 -159 -473 -125
-636 17 -81 65 -172 123 -235 109 -117 232 -163 438 -163 65 0 118 3 118 8 0
4 -9 41 -20 82 -40 148 -36 359 11 589 59 294 205 598 402 839 32 40 57 75 54
78 -17 18 -198 28 -282 17z"/>
<path d="M3717 2720 c-27 -5 -51 -11 -54 -14 -3 -3 22 -38 55 -79 176 -214
313 -486 381 -752 41 -162 55 -266 55 -430 0 -134 -4 -173 -22 -242 -12 -45
-22 -84 -22 -87 0 -3 53 -6 118 -6 206 0 329 46 438 163 120 129 156 283 118
508 -73 435 -380 819 -736 919 -83 24 -255 34 -331 20z"/>
</g>
</svg>
