<?xml version="1.0" encoding="UTF-8" standalone="no" ?>
<!DOCTYPE svg PUBLIC "-//W3C//DTD SVG 1.1//EN" "http://www.w3.org/Graphics/SVG/1.1/DTD/svg11.dtd">
<svg xmlns="http://www.w3.org/2000/svg" xmlns:xlink="http://www.w3.org/1999/xlink" version="1.1" width="1080" height="1080" viewBox="0 0 1080 1080" xml:space="preserve">
<desc>Created with Fabric.js 5.2.4</desc>
<defs>
</defs>
<rect x="0" y="0" width="100%" height="100%" fill="transparent"></rect>
<g transform="matrix(1 0 0 1 540 540)" id="07c57379-4120-4e66-b681-5fdcae1ac1c0"  >
<rect style="stroke: none; stroke-width: 1; stroke-dasharray: none; stroke-linecap: butt; stroke-dashoffset: 0; stroke-linejoin: miter; stroke-miterlimit: 4; fill: rgb(255,255,255); fill-rule: nonzero; opacity: 1; visibility: hidden;" vector-effect="non-scaling-stroke"  x="-540" y="-540" rx="0" ry="0" width="1080" height="1080" />
</g>
<g transform="matrix(1 0 0 1 540 540)" id="e5d218d6-eeac-40b1-a668-5a74544307b0"  >
</g>
<g transform="matrix(1.77 0 0 1.77 540 540)"  >
<g style="" vector-effect="non-scaling-stroke"   >
		<g transform="matrix(0.13 0 0 -0.13 0.1 -150.45)"  >
<path style="stroke: none; stroke-width: 1; stroke-dasharray: none; stroke-linecap: butt; stroke-dashoffset: 0; stroke-linejoin: miter; stroke-miterlimit: 4; fill: rgb(37,99,235); fill-rule: nonzero; opacity: 1;" vector-effect="non-scaling-stroke"  transform=" translate(-2560.28, -3689.4)" d="M 2452 4320 C 2309 4294 2151 4201 2063 4091 C 1858 3832 1877 3471 2109 3240 C 2244 3105 2410 3042 2599 3053 C 2763 3063 2892 3121 3011 3240 C 3307 3536 3246 4016 2885 4238 C 2771 4308 2584 4343 2452 4320 z" stroke-linecap="round" />
</g>
		<g transform="matrix(0.13 0 0 -0.13 -170.6 -107.74)"  >
<path style="stroke: none; stroke-width: 1; stroke-dasharray: none; stroke-linecap: butt; stroke-dashoffset: 0; stroke-linejoin: miter; stroke-miterlimit: 4; fill: rgb(37,99,235); fill-rule: nonzero; opacity: 1;" vector-effect="non-scaling-stroke"  transform=" translate(-1280, -3369.04)" d="M 1185 3838 C 1013 3805 861 3660 815 3483 C 750 3234 918 2959 1170 2901 C 1228 2888 1332 2888 1390 2901 C 1598 2949 1762 3156 1759 3370 C 1756 3669 1480 3895 1185 3838 z" stroke-linecap="round" />
</g>
		<g transform="matrix(0.13 0 0 -0.13 170.73 -107.74)"  >
<path style="stroke: none; stroke-width: 1; stroke-dasharray: none; stroke-linecap: butt; stroke-dashoffset: 0; stroke-linejoin: miter; stroke-miterlimit: 4; fill: rgb(37,99,235); fill-rule: nonzero; opacity: 1;" vector-effect="non-scaling-stroke"  transform=" translate(-3840, -3369.04)" d="M 3745 3838 C 3573 3805 3421 3660 3375 3483 C 3310 3234 3478 2959 3730 2901 C 3788 2888 3892 2888 3950 2901 C 4158 2949 4322 3156 4319 3370 C 4316 3669 4040 3895 3745 3838 z" stroke-linecap="round" />
</g>
		<g transform="matrix(0.13 0 0 -0.13 0.38 95.9)"  >
<path style="stroke: none; stroke-width: 1; stroke-dasharray: none; stroke-linecap: butt; stroke-dashoffset: 0; stroke-linejoin: miter; stroke-miterlimit: 4; fill: rgb(37,99,235); fill-rule: nonzero; opacity: 1;" vector-effect="non-scaling-stroke"  transform=" translate(-2562.38, -1841.75)" d="M 2400 2875 C 2116 2830 1845 2664 1640 2409 C 1473 2201 1365 1972 1308 1706 C 1292 1629 1287 1569 1286 1455 C 1286 1318 1288 1299 1312 1232 C 1348 1132 1393 1059 1465 986 C 1538 911 1619 861 1725 823 L 1805 795 L 2560 795 L 3315 795 L 3395 823 C 3622 903 3773 1070 3824 1297 C 3864 1475 3821 1764 3716 2012 C 3519 2482 3136 2811 2713 2875 C 2596 2893 2514 2893 2400 2875 z" stroke-linecap="round" />
</g>
		<g transform="matrix(0.13 0 0 -0.13 -222.75 85.63)"  >
<path style="stroke: none; stroke-width: 1; stroke-dasharray: none; stroke-linecap: butt; stroke-dashoffset: 0; stroke-linejoin: miter; stroke-miterlimit: 4; fill: rgb(37,99,235); fill-rule: nonzero; opacity: 1;" vector-effect="non-scaling-stroke"  transform=" translate(-888.9, -1918.79)" d="M 1175 2723 C 889 2683 618 2465 456 2144 C 348 1929 297 1671 331 1508 C 348 1427 396 1336 454 1273 C 563 1156 686 1110 892 1110 C 957 1110 1010 1113 1010 1118 C 1010 1122 1001 1159 990 1200 C 950 1348 954 1559 1001 1789 C 1060 2083 1206 2387 1403 2628 C 1435 2668 1460 2703 1457 2706 C 1440 2724 1259 2734 1175 2723 z" stroke-linecap="round" />
</g>
		<g transform="matrix(0.13 0 0 -0.13 222.81 85.71)"  >
<path style="stroke: none; stroke-width: 1; stroke-dasharray: none; stroke-linecap: butt; stroke-dashoffset: 0; stroke-linejoin: miter; stroke-miterlimit: 4; fill: rgb(37,99,235); fill-rule: nonzero; opacity: 1;" vector-effect="non-scaling-stroke"  transform=" translate(-4230.61, -1918.2)" d="M 3717 2720 C 3690 2715 3666 2709 3663 2706 C 3660 2703 3685 2668 3718 2627 C 3894 2413 4031 2141 4099 1875 C 4140 1713 4154 1609 4154 1445 C 4154 1311 4150 1272 4132 1203 C 4120 1158 4110 1119 4110 1116 C 4110 1113 4163 1110 4228 1110 C 4434 1110 4557 1156 4666 1273 C 4786 1402 4822 1556 4784 1781 C 4711 2216 4404 2600 4048 2700 C 3965 2724 3793 2734 3717 2720 z" stroke-linecap="round" />
</g>
</g>
</g>
<g transform="matrix(NaN NaN NaN NaN 0 0)"  >
<g style=""   >
</g>
</g>
<g transform="matrix(NaN NaN NaN NaN 0 0)"  >
<g style=""   >
</g>
</g>
<g transform="matrix(NaN NaN NaN NaN 0 0)"  >
<g style=""   >
</g>
</g>
<g transform="matrix(NaN NaN NaN NaN 0 0)"  >
<g style=""   >
</g>
</g>
<g transform="matrix(NaN NaN NaN NaN 0 0)"  >
<g style=""   >
</g>
</g>
<g transform="matrix(NaN NaN NaN NaN 0 0)"  >
<g style=""   >
</g>
</g>
<g transform="matrix(NaN NaN NaN NaN 0 0)"  >
<g style=""   >
</g>
</g>
<g transform="matrix(NaN NaN NaN NaN 0 0)"  >
<g style=""   >
</g>
</g>
</svg>