<?xml version="1.0" encoding="UTF-8"?><svg id="Capa_1" xmlns="http://www.w3.org/2000/svg" viewBox="0 0 644.94 413.62"><defs><style>.cls-1{fill:#fed720;}</style></defs><path d="M128.44,387.1c-12.31,17.01-21.79,21.22-40.72,10.3-10.9-6.28-18.46-16.17-25.94-26.01-.79-1.04-1.53-2.12-2.25-3.12-22.63,5.74-39.49-9.24-44.81-25.67-7.13-21.99,1.48-42.48,21.11-50.95,13.56-5.85,26.76-5.92,39.51,2.37,18.51,12.04,22.97,44.5,8.17,60.82-2.9,3.2-4.21,5.68-.12,8.98,2.14,1.73,3.74,4.25,5.26,6.63,7.38,11.59,18.16,16.61,31.59,16.63,2.46,0,4.93,0,8.19,0Zm-58.78-40.67c3.56-6.28,5.59-13.18,4.54-20.7-1.4-10-6.83-16.78-16.6-19.8-7.25-2.24-18.1,1.38-23.32,8.07-8.46,10.85-3.62,34.78,15.21,37.52,8.18,1.19,9.77,.11,8.33-7.78-.64-3.53,1.24-4.2,3.48-3.16,2.87,1.34,5.3,3.65,8.35,5.85Z"/><path d="M239.2,285.86h17.43v44.85c4.85-5.91,9.67-11.49,14.12-17.35,1.86-2.45,3.41-3.74,6.81-3.34,4.86,.56,9.83,.14,15.77,.14-3.39,4.05-6.35,7.53-9.25,11.06-3.27,3.97-6.76,7.81-9.6,12.07-.81,1.22-.31,4.2,.69,5.57,6.86,9.36,14.02,18.5,21.53,28.3-6.77,.39-12.82,.86-18.88,.96-1.1,.02-2.48-1.27-3.29-2.31-5.11-6.51-10.09-13.13-15.47-20.16-6.7,6.62-1.67,14.94-4.06,21.79-5.09,.31-10.18,.62-15.8,.97v-82.54Z"/><path d="M446.09,330.91c5.4-5.67,10.8-11.34,16.18-17.03,.85-.9,1.54-2.73,2.36-2.77,6.06-.24,12.12-.13,17.58-.13-6.75,7.7-13.96,15.92-20.89,23.82,8.25,11.42,15.9,22,24.18,33.45-6.75,0-12.49,.14-18.21-.12-1.12-.05-2.36-1.52-3.22-2.59-4.97-6.2-9.85-12.48-15.15-19.23-6.09,6.59-1.77,14.34-4.16,21.09h-14.8v-82.23c5.33,.33,10.72,.67,16.97,1.07-.8,14.69-1.58,29.16-2.37,43.62l1.53,1.04Z"/><path d="M542.05,344.26h-41.08l-.98,1.65c1.86,2.04,3.37,4.65,5.64,5.99,5.87,3.46,12.41,3.78,17.91-.25,3.85-2.82,6.58-1.92,9.68,.2,2.15,1.47,4.09,3.25,6.11,4.89-8.92,11.28-27.05,15.94-38.51,10.03-11.18-5.77-23.25-21.04-18.25-35.8,4.1-12.1,15.49-23.99,31.95-21.81,18.16,2.4,24.99,11.35,27.52,35.1Zm-17.64-11.28c-1.53-6.61-6.23-9.83-13.11-9.5-6.45,.31-9.16,2.83-10.03,9.5h23.13Z"/><path d="M150.03,366.67c-4.8,.65-9.35,1.27-14.63,1.98-.33-1.42-.79-3.43-1.33-5.8-1.18,.61-2.36,1.09-3.4,1.77-15.81,10.3-31.96,2.73-33.13-16.11-.8-12.91-.15-25.9-.15-38.88h16.27c0,9.18-.07,17.95,.04,26.72,.03,2.8,.15,5.7,.88,8.38,1.44,5.28,6.36,8.24,11.49,7.37,3.93-.66,6.81-4.52,6.86-9.72,.1-10.94,.03-21.88,.03-32.78h17.07v57.07Z"/><path d="M351.58,288.09c-.5,6.1-.96,11.69-1.46,17.72h-19.36v62.3h-18.24v-62.64h-21.4v-17.38h60.47Z"/><path d="M624.41,327.58c-3.92-1.57-7.54-3.23-11.31-4.42-1.63-.52-3.73-.5-5.32,.08-1.34,.49-2.27,2.14-3.38,3.27,1.04,.94,1.93,2.31,3.15,2.73,3.44,1.19,7.13,1.73,10.52,3.03,3.83,1.47,7.96,2.87,11.06,5.4,7.72,6.3,6.9,18.36-1.77,25.19-9.8,7.72-20.98,8.62-31.97,3.27-12.72-6.19-9.93-5.42-4.2-14.33,.69-1.07,1.26-2.23,1.15-2.04,6.43,1.68,12.32,3.58,18.35,4.54,1.57,.25,3.61-2.43,5.44-3.77-1.5-1.31-2.79-3.14-4.54-3.8-2.44-.92-5.21-.94-7.83-1.4-10.75-1.9-17.41-8.56-17.42-17.4-.02-9.49,6.83-16.81,17.47-18.67,8.95-1.57,20.37,1.2,28.27,6.83-2.53,3.79-5.06,7.59-7.66,11.49Z"/><path d="M233.9,320.06c-2.93,3.57-5.83,7.1-8.72,10.63-8.86-7.38-17.58-7.63-24.22-.67-4.43,4.64-4.71,12.38-.62,16.82,6.37,6.91,13.7,6.78,22.32,.07,4.03,3.46,7.97,6.86,11.99,10.31-20.96,15.3-36.22,15.65-46.64,1.4-11.79-16.12-9.61-33.22,5.71-44.68,12.57-9.41,30.38-6.63,40.18,6.11Z"/><path d="M550.42,323.76c-2.23,.33-4.29,.64-6.89,1.04-.41-4.21-.83-8.56-1.3-13.38,3.29-.19,6.19-.35,9.5-.54v-15.77c6.06,.41,11.92,.82,17.88,1.22v14.15h11.79c-.42,5.19-.82,10.09-1.26,15.39-3.61-.67-6.82-1.26-10.33-1.91,0,8.27-.19,16.18,.07,24.08,.14,4.3,3.45,4.98,7.12,5.23,2.45,.17,5.96-1.14,6.37,3.5,.66,7.38-.18,10.05-4.91,11.35-12.91,3.54-27.07-.68-27.97-18.95-.41-8.27-.07-16.57-.07-25.41Z"/><path d="M424.48,356.32c-3.1,2.21-5.97,4.17-8.75,6.25-8.1,6.06-17.08,8-26.22,3.57-9.74-4.73-15.3-13.06-16.12-24.09-.85-11.44,1.81-21.35,11.89-28.37,6.17-4.29,12.81-5.51,19.88-4.01,4.85,1.03,9.66,2.61,14.17,4.64,1.55,.7,3.3,3.8,2.93,5.3-.85,3.42-2.79,6.63-4.71,9.67-.33,.52-2.82,.02-4.12-.5-2.74-1.07-5.23-3.07-8.03-3.61-7.96-1.55-15.13,3.69-15.89,11.14-.96,9.26,4.01,15.16,13.18,15.37,2.28,.05,4.67-.36,6.86-1.06,8.13-2.59,10.07-1.95,14.94,5.69Z"/><path d="M175.32,368.32h-16.54v-58.17h16.54v58.17Z"/><path d="M351.78,310.92h16.26v56.45h-16.26v-56.45Z"/><path d="M167.3,303.59c-7.1,.08-10.99-3.41-10.98-9.86,0-5.97,2.9-8.33,10.27-8.41,6.4-.07,11.82,3.46,11.72,7.62-.14,5.33-5.57,10.59-11.01,10.66Z"/><path d="M354.11,294.61c-.05-6.07,2.44-9.47,7.01-9.56,5.26-.11,11.32,4.2,11.24,7.99-.08,4.15-5.07,10.68-8.23,10.77-5.83,.17-9.97-3.63-10.02-9.2Z"/><g><path d="M580.45,209.65c-7.04,3.55-15.1,6.05-21.04,11.06-5.6,4.72-10.18,11.58-13.06,18.4-5.15,12.19-14.87,16.55-26.51,18.16-6.72,.93-13.63,.66-20.45,.66-99.63-.01-199.27-.08-298.9-.11-18.49,0-36.99,.26-55.48,.08-5.45-.05-10.97-.86-16.33-1.94-9.06-1.82-15.37-7.48-19.91-15.38-5.09-8.87-10.73-17.43-19.33-23.24-4.85-3.28-10.44-5.47-16.59-8.6v-30.58c13-2.6,20.99-10.78,23.8-23.63,3.26-14.93,3.56-29.81-4.47-43.62-4.4-7.57-10.52-13.26-19.49-15.44V62.55c17.33-1.2,28.11-11.25,33.54-26.21,5.72-15.76,17.77-20.05,32.08-20.14,53.98-.36,107.97-.12,161.95-.19,70.64-.09,141.29-.35,211.93-.25,7.01,.01,14.14,1.64,21,3.34,6.66,1.65,11.38,6.03,13.25,12.97,.22,.8,.58,1.56,.9,2.33,6.29,14.74,15.59,25.97,33.11,27.93v33.19c-1.55,.47-3.24,1.01-4.94,1.5-12.08,3.52-17.68,12.48-19.5,24.1-1.92,12.21-2.75,24.5,1.06,36.6,3.08,9.77,9.23,16.32,19.42,18.9,1.5,.38,3.74,2.16,3.78,3.35,.3,10.26,.17,20.54,.17,29.69Zm-282.25,28.15h134.86V34.48c-6.15,.27-11.8,.72-17.45,.75-40.82,.19-81.64,.35-122.45,.41-53.31,.07-106.63,.05-159.94-.02-3.11,0-4.77,1.18-6.22,3.84-4.24,7.74-7.63,16.09-14.5,22.1-4.96,4.35-9.44,9.91-15.22,12.46-5.3,2.34-5.82,5.22-5.8,9.76,7.61,2.45,12.27,7.86,16.16,14.3,5.62,9.32,8.69,19.43,9.46,30.19,1.69,23.56-1.86,45.2-22.75,60.32-2.94,2.13-2.62,5.19,.52,7.21,2.51,1.61,5.24,2.89,7.67,4.62,10.92,7.76,17.45,19.07,23.89,30.33,2.93,5.13,6.87,7.38,12.53,7.25,1.66-.04,3.33,.07,5,.07,46.49-.07,92.97-.14,139.46-.23,1.77,0,3.55-.16,5.02-.23v-61.59H133.95c.16-2.5,.32-5.07,.52-8.21H415.36c-.25,2.91-.49,5.64-.74,8.46h-116.42v61.53Zm153.98,.63c22.64,0,44.78-.07,66.91,.04,7.97,.04,7.88,.21,10.08-7.4,4.51-15.6,14.24-26.75,28.87-33.77,1.65-.79,3.92-2.53,3.95-3.88,.04-1.58-1.88-3.38-3.24-4.8-4.65-4.86-10.93-8.81-13.89-14.5-12.41-23.9-12.15-48.59-1.58-73.14,3.07-7.13,8.14-12.9,15.11-16.81,1.51-.85,3.87-2.95,3.61-3.65-.82-2.24-2.27-4.97-4.24-5.94-8.11-3.99-15.24-9.21-20.04-16.79-4.39-6.95-7.73-14.57-11.69-22.19h-73.84V238.44Z"/><path class="cls-1" d="M298.21,237.8v-61.53h116.42c.25-2.82,.48-5.54,.74-8.46H134.46c-.2,3.14-.36,5.71-.52,8.21h154.49v61.59c-1.47,.07-3.24,.22-5.02,.23-46.49,.09-92.97,.16-139.46,.23-1.67,0-3.33-.1-5-.07-5.66,.13-9.6-2.12-12.53-7.25-6.44-11.26-12.98-22.57-23.89-30.33-2.42-1.72-5.16-3-7.67-4.62-3.14-2.02-3.46-5.08-.52-7.21,20.89-15.12,24.44-36.76,22.75-60.32-.77-10.76-3.83-20.86-9.46-30.19-3.88-6.44-8.55-11.85-16.16-14.3-.01-4.54,.5-7.42,5.8-9.76,5.78-2.55,10.26-8.12,15.22-12.46,6.86-6.01,10.25-14.36,14.5-22.1,1.46-2.66,3.12-3.85,6.22-3.84,53.31,.07,106.63,.09,159.94,.02,40.82-.05,81.64-.22,122.45-.41,5.65-.03,11.3-.47,17.45-.75V237.8h-134.86ZM196.88,89.68c1.11-3.42,3.17-7.55,3.7-11.87,1.24-10.26-3.26-18.5-11.95-23.45-9.03-5.15-18.86-5.48-27.84,.67-8.45,5.79-13.67,13.21-11.69,24.41,1.45,8.21,4.5,14.97,12.27,18.71,7.11,3.42,14.26,8.18,20.75,1.73,3.72,1.78,7,4.76,9.39,4.16,3.68-.92,7.06-4,9.8-6.89,.51-.53-2.63-4.52-4.42-7.47Zm95.94,66.92h36.56c0-2.05-.06-4.32,.01-6.57,.14-4.15-1.06-6.42-5.97-6.04-5.87,.46-11.8,.11-17.6,.11v-7.14h20.39c.11-1.37,.25-2.49,.27-3.62,.1-7.2,.09-7.24-6.93-7.34-4.78-.07-9.55-.01-14.25-.01-.77-5.05-.53-5.36,3.78-5.63,5.31-.33,10.63-.54,15.91-1.13,1.21-.13,3.13-1.48,3.26-2.45,.42-3.21,.16-6.51,.16-10.44-12.25,.63-24.07,1.24-35.58,1.83v48.44Zm54.57-74.61c4.1,5.65,8.14,11.32,12.33,16.86,.58,.76,1.93,1.35,2.91,1.33,4.25-.09,8.49-.44,14.71-.81-7.45-9.61-14.07-18.14-20.56-26.52,5.67-6.19,11.29-12.31,17.43-19-3.47-.71-5.71-1.16-7.94-1.62-3.95-.82-7.15-.32-10.03,3.23-4.22,5.2-9.12,9.86-13.95,14.98v-17.73c-4.21-.26-8.27-.51-12.24-.76v48.73c4.9-.36,9-.65,13.32-.96-.45-6.41-2.76-13,4.02-17.72Zm-58.05,75.09c-.73-1.72-1.03-3.04-1.76-4.05-4.77-6.59-9.46-13.26-14.57-19.58-2.26-2.8-2.83-5.1-.44-7.78,3.84-4.31,7.81-8.51,11.66-12.81,1.12-1.25,2.03-2.67,3.64-4.82-4.8,0-8.47-.33-12.04,.13-1.94,.25-4.14,1.42-5.48,2.87-4.97,5.41-9.64,11.1-14.28,16.52v-19.51c-3.03,0-6.04-.31-8.93,.14-1.29,.2-3.33,1.93-3.34,3-.22,15.08-.15,30.17-.15,44.99h13.15c1.08-5.86-1.91-12.37,3.99-17.07,3.03,3.57,6.6,6.63,8.69,10.48,4.51,8.31,12.02,7,19.86,7.46ZM220.44,53.06c-4.92-.35-9.14-.66-13.29-.96,0,10.35,.2,20-.08,29.63-.14,4.85,1.27,8.85,4.56,12.21,6.78,6.92,15.21,9.16,24.24,6.4,9.46-2.89,14.81-10.26,15.55-19.98,.7-9.22,.15-18.54,.15-27.81h-14.12c0,9.19,.12,18-.05,26.8-.08,4.18-3.79,8.29-7.07,8.52-4.35,.3-8.9-3.25-9.69-7.75-.29-1.62-.18-3.32-.18-4.98-.02-7.14,0-14.28,0-22.07Zm152.37,95.72c4.04,2.55,7.49,5.23,11.33,7.05,8.56,4.06,16.84,3.09,24.36-2.73,5.36-4.16,7.02-9.86,6.2-16.44-.71-5.77-5.47-7.04-9.77-8.66-3.86-1.46-7.93-2.38-11.73-3.97-1.15-.48-1.72-2.37-2.56-3.61,1.25-.57,2.6-1.76,3.73-1.59,4.61,.72,9.16,1.86,14.16,2.94,1.45-2.53,3.29-5.77,5.19-9.08-9.39-5.9-18.88-8.59-29.33-3.51-5.77,2.81-9.56,8.35-9.07,14.26,.5,6.18,4.45,9.87,10,11.77,3.91,1.34,8.05,1.98,11.99,3.24,1.21,.39,2.94,1.82,2.91,2.72-.05,1.33-1.19,3.26-2.36,3.74-1.68,.69-4.03,.88-5.69,.25-4.13-1.58-8.03-3.75-12.38-5.86-1.39,1.74-3.05,3.76-4.64,5.84-.69,.9-1.24,1.92-2.33,3.64Zm-143.2-11.8c-6.26,8.08-11.99,9.22-18.24,4.48-6.17-4.68-7.69-9.77-3.58-14.79,2.19-2.67,5.45-4.94,8.69-6.18,5.84-2.23,9.29,2.57,12.85,6.32,3.02-3.79,5.65-7.09,8.6-10.8-2.77-2.1-5.24-4.31-8.02-6.01-8.06-4.93-16.57-5.29-24.39-.06-8.71,5.84-14.66,14.36-13.61,25.09,1.17,12,14.13,22.49,24.95,22.66,8.31,.13,14.17-3.88,20.37-7.89,.61-.4,.52-3.1-.17-4.07-2.12-2.96-4.7-5.59-7.44-8.75Zm84.72-54.81c-6.56,6.33-13.23,6.85-18.66,1.76-4.68-4.4-4.99-10.72-.76-15.61,4.94-5.71,11.74-5.28,19.82,1.23,3.12-2.6,6.23-5.19,9.34-7.78-9.96-13.29-27.79-14.43-38.22-2.46-8.98,10.3-8.78,24.49,.5,34.34,8.31,8.82,22.17,9.93,31.7,2.55q6.55-5.07,.29-10.56c-1.24-1.08-2.48-2.16-3.99-3.47Zm19.18,37.65c2.12,0,3.6,.04,5.08,0,6.69-.22,6.78-.23,6.84,6.46,.08,10.11,.02,20.22,.02,30.14h14.2v-36.39c4.27,.32,7.96,.6,11.69,.89v-13.43h-38.67c.29,4.22,.55,7.99,.85,12.34Zm-178.86,1.09c13.15-2.05,13.61-2.59,12.11-13.41h-38.28v13.16h12.29v35.92h13.88v-35.66Zm17.63,35.61h12.75v-47.86h-12.75v47.86Zm87.01-104.34v48.19c4.38,.23,8.12,.43,12.43,.65V52.19h-12.43Zm116.26,148.4c1.76,1.34,3.99,3.1,6.3,4.74,1.09,.77,2.69,1.05,3.4,2.03,.42,.57-.23,2.87-.77,3.02-1.43,.39-3.15,.32-4.6-.1-2-.59-3.85-1.67-5.77-2.54-.48,.69-.95,1.37-1.43,2.06,2.42,2.15,4.54,5.34,7.34,6.14,2.45,.7,6.13-.63,8.45-2.23,3.62-2.5,4.67-16.96,2.08-20.56-4.2-5.84-11.78-5.14-14.86,1.38-.4,.85-.73,1.73-.61,1.45-2.7-1.65-5.07-3.62-7.81-4.6-2.24-.81-4.91-.6-7.39-.56-7.24,.12-7.77,.93-5.81,8.33,4.39-1.98,8.8-3.96,13.7-6.17,.88,4.41-.78,6.63-3.44,8.33-2.52,1.61-4.96,3.5-7.71,4.55-4.44,1.7-5.25,4.96-5.03,10.12,5.8,0,11.57,.16,17.33-.13,1.19-.06,2.3-1.77,3.44-2.72-1.23-1.02-2.32-2.57-3.72-2.95-2.37-.64-4.95-.55-6.63-.69,4.41-2.9,8.94-5.88,13.53-8.9Zm-174.86-.43c-3.52,0-6.64-.14-9.74,.03-4.22,.23-5.27-1.57-4.11-5.07,4.48-2.34,11.2,1.77,14.04-5.91h-19.95v27.79c5.61-.36,10.76-.49,15.84-1.15,1.66-.22,3.13-1.83,4.69-2.8l-.75-1.57c-4.38-.29-8.76-.57-13.13-.86-.72-5.22,2.79-4.81,5.62-5.34,2.91-.55,6.86,.39,7.48-5.11Zm194.62,16.1c7.76,.05,15.07,.7,19.63-6.6,2.94-4.7,2.61-9.67-.45-14.09-4.74-6.85-11.79-6.99-19.18-6.05v26.75Zm-169.72-12.85c-.41-2.56-.6-4.72-1.14-6.8-1.16-4.46-4.18-7.1-8.64-8.03-4.35-.9-6.6,2.1-9.09,4.88-4.45,4.98-3.8,10.41-1.54,15.87,1.69,4.07,4.06,7.87,9.2,7.96,5.08,.09,7.72-3.53,9.67-7.49,.99-2.01,1.09-4.46,1.53-6.39Zm105.65-13.73v26.93c4.1-.49,8.55-.76,12.89-1.6,5.08-.99,6.48-4.43,4.83-9.14-.72-2.07-.67-4.76-.03-6.88,1.61-5.3,.74-7.38-4.89-8.26-4.22-.66-8.54-.72-12.81-1.04Zm-91.12,28.26c3.82-.56,8.73-7.64,8.09-10.96-.93-4.84-1.67-9.73-2.94-14.49-.37-1.4-2.09-2.88-3.52-3.38-.83-.29-2.71,1.04-3.44,2.1-2.8,4.11-5.42,8.34-7.91,12.64-1.45,2.49-2.52,5.21-4.17,8.7h13.89v5.37Zm-74.93-1.06c-.16-3.23-.3-6.26-.45-9.24q12.26-1.22,11.58-6.61c-2.2,0-4.48,.07-6.76-.01-5.28-.19-5.69-.84-4.18-6.63,2.39-.14,4.86-.2,7.32-.45,4.28-.45,4.41-.65,3.96-4.68h-18.25v27.63h6.78Zm153.02-6.7l-.46-.88c2.49-1.76,5.45-3.13,7.33-5.39,1.71-2.06,3.09-5.08,3.1-7.69,.01-3.39-6.98-7.48-10.84-7.12-4.21,.39-7.48,4.46-7.5,10.2,2.25-1.49,3.96-3.15,5.99-3.79,1.64-.51,3.67,.23,5.52,.41-.23,1.71,.15,3.98-.81,5.02-2.79,3.03-6.35,5.35-9.11,8.41-1.38,1.53-1.67,4.04-2.65,6.64h18.3v-5.81h-8.87Zm-67.29-21.16c-1.58,4.58-.07,6.43,4.52,6.19,2.41-.12,4.84,.22,8.5,.41-3.58,7.72-6.78,14.63-9.96,21.47,2.78,.72,5.47-.38,7.2-3.84,3.18-6.36,6.45-12.68,9.58-19.07,.68-1.4,.89-3.04,1.49-5.16h-21.33Zm-107.45,12.2c-1.22-7.08-.96-7.43,5.03-7.76,1.49-.08,3.09,.1,4.45-.38,.99-.35,1.66-1.58,3.08-3.04-7.19-.36-13.1-.66-18.8-.95v26.98q4.37,.11,6.48-7.39c2.77-3.84,10.85,1.72,9.54-7.46h-9.78Z"/><path class="cls-1" d="M452.18,238.44V35.6h73.84c3.96,7.63,7.3,15.24,11.69,22.19,4.79,7.58,11.92,12.8,20.04,16.79,1.98,.97,3.42,3.7,4.24,5.94,.26,.71-2.1,2.81-3.61,3.65-6.97,3.91-12.04,9.68-15.11,16.81-10.57,24.55-10.82,49.24,1.58,73.14,2.96,5.7,9.24,9.65,13.89,14.5,1.36,1.42,3.29,3.22,3.24,4.8-.04,1.35-2.3,3.08-3.95,3.88-14.63,7.02-24.36,18.17-28.87,33.77-2.2,7.6-2.11,7.43-10.08,7.4-22.13-.11-44.26-.04-66.91-.04Zm23.34-85.79h43.49v-7.8h-18.72l-.13-1.68c5.29-.57,10.59-1.07,15.86-1.76,1.22-.16,2.36-.97,3.54-1.48-.2-.52-.41-1.04-.61-1.56-14.51,.12-29.08-1.06-43.49,1.33-.06,.54-.11,1.08-.17,1.63,5.49,.88,10.99,1.76,16.48,2.65-.01,.51-.03,1.03-.04,1.54-3.74,.21-7.49,.64-11.23,.57-4.74-.08-6.42,1.86-4.99,6.56Zm-.53,69.22h44.08c1.11-7.76,1.05-7.88-5.99-7.9-12.42-.03-24.83,0-37.7,0-.13,2.54-.25,5.13-.39,7.9Zm44.35-63.5h-43.85v7.23h43.85v-7.23Zm-22.22,22.84c-6.14,0-12.29-.16-18.42,.15-1.15,.06-2.98,1.92-3.11,3.09-.13,1.22,1.4,3.73,2.28,3.76,12.43,.52,24.87,.79,37.3,.96,3.21,.04,4.37-2.62,4.04-5.11-.15-1.11-2.67-2.64-4.18-2.72-5.96-.31-11.95-.13-17.92-.13Zm-21.74-57.1c14.13,0,27.93,.09,41.72-.18,1.1-.02,2.48-2.44,3.04-3.99,.17-.46-2-2.56-3.12-2.57-13.89-.18-27.79-.12-42.07-.12,.12,1.88,.23,3.8,.42,6.87Zm.19,10.53c13.53,0,26.67-.09,39.81,.05,4.43,.05,5.51-2.01,4.69-6.33h-44.5v6.28Zm.38-55.55c-1.16,6.71-.98,7.02,4.88,7.01,10.95-.01,21.9-.1,32.85-.24,2.19-.03,4.87,.54,4.98-3.16,.11-3.99-2.81-3.55-5.15-3.57-12.43-.09-24.86-.04-37.56-.04Zm42.6-5.02c-.28-3.24,1.94-7.12-3.29-7.12-12.13,0-24.26,.1-36.39,.44-1.24,.03-2.43,1.89-3.65,2.91,1.15,1.26,2.28,3.59,3.46,3.61,13.08,.26,26.16,.16,39.87,.16Zm-43.59,95.73c1.03,2.58-1.67,6.35,3.5,6.37,12.13,.05,24.25,.1,36.38-.08,2.01-.03,5.43,.13,4.58-3.41-.3-1.25-2.97-2.73-4.57-2.76-12.94-.22-25.88-.13-39.89-.13Zm1.61-114.84c-1.52,5.08-.09,7.16,4.78,7.01,11.48-.35,22.96-.52,34.45-.7,2.35-.03,3.76-.58,3.75-3.34,0-2.97-1.71-3.01-3.93-3-12.96,.06-25.92,.03-39.05,.03Zm-.98,138.82c-.07,2.51-1.51,6.06,3.09,6.04,12.1-.04,24.2-.33,36.29-.84,1.46-.06,2.84-2.12,4.26-3.26l-.94-1.94h-42.7Zm21.53-86.18c0,.38,0,.76,0,1.13,5.48,0,10.97,.14,16.44-.08,2.01-.08,5.57,.61,4.67-3.13-.35-1.46-3.15-3.25-4.87-3.3-11.47-.31-22.95-.26-34.42-.08-1.29,.02-2.55,1.58-3.83,2.43,1.19,1.01,2.34,2.82,3.57,2.88,6.13,.3,12.29,.14,18.43,.14Zm-21.13,96.43c-.76,5.25-.54,6.16,2.46,6.13,12.79-.12,25.58-.48,38.37-.93,.88-.03,1.7-1.52,2.55-2.32-.91-.91-1.72-2.42-2.76-2.61-2.43-.43-4.97-.25-7.46-.25-11.09-.01-22.19,0-33.16,0Zm20.84-113.12v.2c-5.82,0-11.65,.01-17.47,0-2.4,0-4.77,.48-3.93,3.46,.35,1.25,2.59,2.82,3.96,2.81,11.48-.07,22.96-.38,34.42-.92,1.39-.07,2.69-1.93,4.03-2.95-1.34-.87-2.65-2.41-4.03-2.48-5.64-.28-11.31-.12-16.97-.12Z"/><path d="M196.88,89.68c1.79,2.95,4.93,6.93,4.42,7.47-2.74,2.89-6.12,5.97-9.8,6.89-2.38,.6-5.67-2.38-9.39-4.16-6.48,6.44-13.64,1.68-20.75-1.73-7.77-3.74-10.82-10.49-12.27-18.71-1.98-11.2,3.23-18.63,11.69-24.41,8.99-6.15,18.81-5.81,27.84-.67,8.69,4.95,13.18,13.19,11.95,23.45-.52,4.32-2.59,8.45-3.7,11.87Zm-23.25-10.38l1.73-1.42c2.87,1.13,5.67,2.55,8.63,3.25,1.21,.28,3.66-.68,4.05-1.67,2.25-5.73-4.55-15.03-10.79-15.13-7.19-.12-13.78,5.54-13.64,11.72,.18,7.77,6.32,12.99,13.59,12.37l-3.58-9.12Z"/><path d="M292.82,156.6v-48.44c11.51-.59,23.33-1.2,35.58-1.83,0,3.93,.26,7.23-.16,10.44-.13,.98-2.05,2.32-3.26,2.45-5.28,.59-10.6,.8-15.91,1.13-4.3,.27-4.54,.58-3.78,5.63,4.7,0,9.47-.06,14.25,.01,7.03,.1,7.04,.14,6.93,7.34-.02,1.12-.16,2.25-.27,3.62h-20.39v7.14c5.8,0,11.73,.35,17.6-.11,4.9-.38,6.1,1.89,5.97,6.04-.07,2.26-.01,4.52-.01,6.57h-36.56Z"/><path d="M347.4,81.98c-6.78,4.72-4.46,11.31-4.02,17.72-4.32,.31-8.41,.61-13.32,.96V51.94c3.97,.25,8.03,.5,12.24,.76v17.73c4.83-5.12,9.73-9.78,13.95-14.98,2.88-3.54,6.08-4.04,10.03-3.23,2.23,.46,4.47,.91,7.94,1.62-6.14,6.69-11.76,12.82-17.43,19,6.49,8.38,13.11,16.9,20.56,26.52-6.23,.37-10.47,.72-14.71,.81-.98,.02-2.33-.56-2.91-1.33-4.19-5.55-8.23-11.21-12.33-16.86Z"/><path d="M289.35,157.08c-7.84-.46-15.34,.85-19.86-7.46-2.09-3.86-5.66-6.91-8.69-10.48-5.9,4.7-2.91,11.21-3.99,17.07h-13.15c0-14.83-.07-29.91,.15-44.99,.02-1.06,2.05-2.79,3.34-3,2.89-.45,5.9-.14,8.93-.14v19.51c4.64-5.42,9.3-11.12,14.28-16.52,1.33-1.45,3.54-2.62,5.48-2.87,3.57-.46,7.24-.13,12.04-.13-1.6,2.14-2.52,3.57-3.64,4.82-3.85,4.3-7.82,8.5-11.66,12.81-2.39,2.68-1.82,4.98,.44,7.78,5.11,6.32,9.79,12.99,14.57,19.58,.73,1.01,1.03,2.33,1.76,4.05Z"/><path d="M220.44,53.06c0,7.79,0,14.93,0,22.07,0,1.66-.1,3.36,.18,4.98,.79,4.5,5.34,8.04,9.69,7.75,3.29-.22,6.99-4.34,7.07-8.52,.18-8.8,.05-17.61,.05-26.8h14.12c0,9.28,.55,18.59-.15,27.81-.74,9.72-6.09,17.09-15.55,19.98-9.02,2.76-17.46,.53-24.24-6.4-3.29-3.36-4.7-7.35-4.56-12.21,.28-9.63,.08-19.28,.08-29.63,4.14,.3,8.36,.6,13.29,.96Z"/><path d="M372.81,148.79c1.09-1.72,1.64-2.74,2.33-3.64,1.59-2.08,3.26-4.1,4.64-5.84,4.36,2.11,8.26,4.28,12.38,5.86,1.66,.64,4.01,.44,5.69-.25,1.17-.48,2.31-2.42,2.36-3.74,.03-.9-1.71-2.33-2.91-2.72-3.94-1.26-8.08-1.9-11.99-3.24-5.55-1.9-9.5-5.59-10-11.77-.48-5.91,3.3-11.45,9.07-14.26,10.46-5.09,19.94-2.4,29.33,3.51-1.89,3.32-3.74,6.55-5.19,9.08-5-1.08-9.54-2.22-14.16-2.94-1.13-.18-2.48,1.02-3.73,1.59,.84,1.24,1.41,3.13,2.56,3.61,3.8,1.58,7.87,2.51,11.73,3.97,4.3,1.62,9.06,2.89,9.77,8.66,.81,6.58-.84,12.28-6.2,16.44-7.52,5.83-15.8,6.8-24.36,2.73-3.85-1.83-7.29-4.5-11.33-7.05Z"/><path d="M229.61,136.99c2.74,3.15,5.32,5.79,7.44,8.75,.69,.97,.78,3.67,.17,4.07-6.2,4.02-12.05,8.03-20.37,7.89-10.82-.17-23.78-10.66-24.95-22.66-1.04-10.72,4.9-19.25,13.61-25.09,7.82-5.24,16.33-4.87,24.39,.06,2.78,1.7,5.25,3.91,8.02,6.01-2.95,3.71-5.58,7.01-8.6,10.8-3.56-3.75-7.01-8.55-12.85-6.32-3.24,1.24-6.5,3.51-8.69,6.18-4.11,5.02-2.59,10.1,3.58,14.79,6.25,4.74,11.98,3.6,18.24-4.48Z"/><path d="M314.33,82.17c1.51,1.31,2.76,2.38,3.99,3.47q6.26,5.49-.29,10.56c-9.53,7.38-23.39,6.27-31.7-2.55-9.28-9.84-9.48-24.03-.5-34.34,10.44-11.97,28.26-10.83,38.22,2.46-3.11,2.59-6.22,5.18-9.34,7.78-8.07-6.51-14.87-6.95-19.82-1.23-4.23,4.89-3.92,11.21,.76,15.61,5.43,5.09,12.1,4.57,18.66-1.76Z"/><path d="M333.51,119.82c-.3-4.35-.56-8.13-.85-12.34h38.67v13.43c-3.74-.28-7.42-.56-11.69-.89v36.39h-14.2c0-9.92,.06-20.03-.02-30.14-.05-6.69-.14-6.68-6.84-6.46-1.48,.05-2.95,0-5.08,0Z"/><path d="M154.65,120.91v35.66h-13.88v-35.92h-12.29v-13.16h38.28c1.5,10.82,1.04,11.36-12.11,13.41Z"/><path d="M172.28,156.53v-47.86h12.75v47.86h-12.75Z"/><path d="M259.29,52.19h12.43v48.84c-4.32-.23-8.05-.42-12.43-.65V52.19Z"/><path d="M375.54,200.59c-4.6,3.02-9.12,6-13.53,8.9,1.69,.15,4.26,.05,6.63,.69,1.4,.38,2.49,1.93,3.72,2.95-1.15,.95-2.25,2.66-3.44,2.72-5.75,.29-11.53,.13-17.33,.13-.22-5.16,.59-8.43,5.03-10.12,2.75-1.05,5.19-2.94,7.71-4.55,2.66-1.7,4.31-3.92,3.44-8.33-4.9,2.21-9.3,4.19-13.7,6.17-1.97-7.39-1.43-8.21,5.81-8.33,2.48-.04,5.15-.25,7.39,.56,2.73,.98,5.11,2.95,7.81,4.6-.12,.28,.21-.6,.61-1.45,3.08-6.52,10.67-7.22,14.86-1.38,2.59,3.6,1.54,18.06-2.08,20.56-2.33,1.6-6,2.93-8.45,2.23-2.8-.8-4.92-3.99-7.34-6.14,.48-.69,.95-1.37,1.43-2.06,1.92,.87,3.77,1.95,5.77,2.54,1.45,.42,3.17,.49,4.6,.1,.54-.15,1.19-2.45,.77-3.02-.72-.98-2.31-1.26-3.4-2.03-2.31-1.64-4.54-3.41-6.3-4.74Zm10.3,.42c.49-.45,.98-.9,1.47-1.35-1.3-1.65-2.91-4.83-3.83-4.64-2.33,.47-4.35,2.46-6.5,3.85,.27,.55,.54,1.1,.81,1.65,2.68,.16,5.37,.33,8.05,.49Z"/><path d="M200.69,200.15c-.62,5.51-4.57,4.57-7.48,5.11-2.83,.53-6.34,.12-5.62,5.34,4.37,.29,8.75,.57,13.13,.86l.75,1.57c-1.56,.97-3.04,2.59-4.69,2.8-5.08,.66-10.23,.78-15.84,1.15v-27.79h19.95c-2.84,7.68-9.56,3.57-14.04,5.91-1.16,3.5-.11,5.31,4.11,5.07,3.1-.17,6.22-.03,9.74-.03Z"/><path d="M395.31,216.25v-26.75c7.39-.94,14.44-.8,19.18,6.05,3.06,4.42,3.39,9.39,.45,14.09-4.56,7.3-11.87,6.65-19.63,6.6Zm4.69-4.55c3.68-2.12,7.17-3.18,8.99-5.53,1.14-1.47,.69-5.84-.71-7.19-1.84-1.77-5.31-1.85-8.28-2.71v15.44Z"/><path d="M225.59,203.4c-.43,1.94-.54,4.38-1.53,6.39-1.95,3.96-4.59,7.58-9.67,7.49-5.13-.09-7.51-3.89-9.2-7.96-2.26-5.46-2.91-10.9,1.54-15.87,2.49-2.78,4.74-5.78,9.09-4.88,4.46,.93,7.48,3.57,8.64,8.03,.54,2.08,.72,4.25,1.14,6.8Zm-5.19-2.17c.2-3.94-2.51-5.74-5.6-5.46-3.87,.35-5.23,3.7-5.19,7.35,.04,3.59,1.25,6.75,5.11,7.59,2.49,.54,5.71-5.12,5.67-9.47Z"/><path d="M331.24,189.67c4.28,.33,8.59,.38,12.81,1.04,5.63,.88,6.5,2.96,4.89,8.26-.64,2.12-.69,4.81,.03,6.88,1.64,4.71,.25,8.16-4.83,9.14-4.34,.84-8.79,1.11-12.89,1.6v-26.93Zm4.11,11.18c3.95-1,6.85-1.72,9.72-2.55,.12-.04,.11-1.63-.15-1.74-2.57-1.05-5.2-1.94-8.15-2.99-.52,2.69-.83,4.28-1.41,7.28Zm9.59,8.99l.48-2.42c-2.72-.86-5.45-1.72-8.99-2.84,.22,3,.33,4.58,.49,6.65,2.99-.52,5.51-.95,8.03-1.39Z"/><path d="M240.12,217.93v-5.37h-13.89c1.66-3.5,2.73-6.21,4.17-8.7,2.49-4.3,5.11-8.54,7.91-12.64,.73-1.07,2.61-2.39,3.44-2.1,1.43,.5,3.15,1.98,3.52,3.38,1.27,4.75,2,9.65,2.94,14.49,.64,3.32-4.28,10.4-8.09,10.96Zm2.2-19.53c-3.31,3.08-5.83,5.41-8.8,8.16,6.13,.41,8.27-2.38,8.8-8.16Z"/><path d="M165.18,216.87h-6.78v-27.63h18.25c.45,4.03,.32,4.23-3.96,4.68-2.46,.26-4.94,.31-7.32,.45-1.51,5.79-1.1,6.44,4.18,6.63,2.28,.08,4.56,.01,6.76,.01q.67,5.39-11.58,6.61c.14,2.98,.29,6.01,.45,9.24Z"/><path d="M318.2,210.17h8.87v5.81h-18.3c.98-2.6,1.27-5.11,2.65-6.64,2.76-3.05,6.33-5.37,9.11-8.41,.96-1.04,.58-3.31,.81-5.02-1.86-.18-3.88-.92-5.52-.41-2.03,.63-3.74,2.3-5.99,3.79,.02-5.74,3.29-9.8,7.5-10.2,3.86-.36,10.85,3.73,10.84,7.12,0,2.6-1.39,5.63-3.1,7.69-1.88,2.26-4.84,3.63-7.33,5.39l.46,.88Z"/><path d="M250.91,189.01h21.33c-.6,2.13-.8,3.76-1.49,5.16-3.12,6.39-6.4,12.71-9.58,19.07-1.73,3.46-4.43,4.56-7.2,3.84,3.17-6.85,6.38-13.75,9.96-21.47-3.66-.2-6.1-.54-8.5-.41-4.59,.24-6.1-1.62-4.52-6.19Z"/><path d="M143.46,201.21h9.78c1.31,9.18-6.77,3.62-9.54,7.46q-2.11,7.5-6.48,7.39v-26.98c5.7,.29,11.61,.58,18.8,.95-1.42,1.46-2.09,2.69-3.08,3.04-1.36,.48-2.95,.3-4.45,.38-5.99,.33-6.24,.68-5.03,7.76Z"/><path d="M475.52,152.64c-1.42-4.71,.26-6.64,4.99-6.56,3.74,.06,7.48-.36,11.23-.57,.01-.51,.03-1.03,.04-1.54-5.49-.88-10.99-1.76-16.48-2.65,.06-.54,.11-1.08,.17-1.63,14.41-2.4,28.98-1.21,43.49-1.33,.2,.52,.41,1.04,.61,1.56-1.18,.51-2.32,1.32-3.54,1.48-5.27,.69-10.57,1.19-15.86,1.76l.13,1.68h18.72v7.8h-43.49Z"/><path d="M475,221.86c.14-2.77,.27-5.37,.39-7.9,12.87,0,25.28-.02,37.7,0,7.04,.02,7.11,.14,5.99,7.9h-44.08Z"/><path d="M519.35,158.37v7.23h-43.85v-7.23h43.85Z"/><path d="M497.13,181.2c5.98,0,11.96-.18,17.92,.13,1.51,.08,4.03,1.6,4.18,2.72,.33,2.49-.83,5.15-4.04,5.11-12.44-.17-24.88-.43-37.3-.96-.88-.04-2.4-2.54-2.28-3.76,.12-1.17,1.95-3.03,3.11-3.09,6.13-.31,12.28-.15,18.42-.14Z"/><path d="M475.39,124.1c-.19-3.06-.31-4.99-.42-6.87,14.27,0,28.17-.06,42.07,.12,1.12,.01,3.28,2.11,3.12,2.57-.56,1.55-1.94,3.97-3.04,3.99-13.79,.27-27.59,.18-41.72,.18Z"/><path d="M475.58,134.63v-6.28h44.5c.83,4.32-.26,6.38-4.69,6.33-13.14-.14-26.28-.05-39.81-.05Z"/><path d="M475.96,79.07c12.7,0,25.13-.05,37.56,.04,2.34,.02,5.26-.43,5.15,3.57-.1,3.7-2.79,3.13-4.98,3.16-10.95,.14-21.9,.23-32.85,.24-5.86,0-6.04-.3-4.88-7.01Z"/><path d="M518.57,74.06c-13.7,0-26.79,.1-39.87-.16-1.18-.02-2.31-2.36-3.46-3.61,1.22-1.01,2.41-2.87,3.65-2.91,12.12-.33,24.26-.44,36.39-.44,5.23,0,3.01,3.88,3.29,7.12Z"/><path d="M474.98,169.79c14,0,26.95-.1,39.89,.13,1.61,.03,4.27,1.51,4.57,2.76,.84,3.54-2.57,3.38-4.58,3.41-12.12,.18-24.25,.13-36.38,.08-5.17-.02-2.47-3.79-3.5-6.37Z"/><path d="M476.6,54.95c13.13,0,26.09,.03,39.05-.03,2.23-.01,3.93,.03,3.93,3,0,2.76-1.41,3.31-3.75,3.34-11.48,.17-22.97,.34-34.45,.7-4.87,.15-6.3-1.93-4.78-7.01Z"/><path d="M475.62,193.76h42.7l.94,1.94c-1.42,1.13-2.79,3.2-4.26,3.26-12.09,.51-24.19,.8-36.29,.84-4.6,.02-3.16-3.53-3.09-6.04Z"/><path d="M497.15,107.59c-6.15,0-12.3,.16-18.43-.14-1.23-.06-2.38-1.88-3.57-2.88,1.28-.85,2.54-2.41,3.83-2.43,11.47-.18,22.95-.23,34.42,.08,1.72,.05,4.52,1.84,4.87,3.3,.9,3.74-2.67,3.05-4.67,3.13-5.47,.22-10.96,.08-16.44,.08,0-.38,0-.76,0-1.13Z"/><path d="M476.01,204.01c10.97,0,22.06,0,33.16,0,2.49,0,5.03-.17,7.46,.25,1.04,.18,1.85,1.7,2.76,2.61-.85,.81-1.67,2.29-2.55,2.32-12.78,.45-25.57,.81-38.37,.93-3,.03-3.22-.88-2.46-6.13Z"/><path d="M496.85,90.89c5.66,0,11.32-.17,16.97,.12,1.38,.07,2.69,1.61,4.03,2.48-1.34,1.03-2.64,2.89-4.03,2.95-11.46,.54-22.94,.84-34.42,.92-1.37,0-3.61-1.56-3.96-2.81-.84-2.98,1.53-3.47,3.93-3.46,5.82,.02,11.65,0,17.47,0v-.2Z"/><path class="cls-1" d="M173.63,79.3l3.58,9.12c-7.27,.62-13.41-4.6-13.59-12.37-.14-6.18,6.44-11.84,13.64-11.72,6.23,.1,13.03,9.4,10.79,15.13-.39,.99-2.84,1.95-4.05,1.67-2.97-.69-5.77-2.12-8.63-3.25l-1.73,1.42Z"/><path class="cls-1" d="M385.85,201c-2.68-.16-5.37-.33-8.05-.49-.27-.55-.54-1.1-.81-1.65,2.15-1.38,4.17-3.37,6.5-3.85,.93-.19,2.53,2.99,3.83,4.64-.49,.45-.98,.9-1.47,1.35Z"/><path class="cls-1" d="M400,211.7v-15.44c2.96,.86,6.44,.94,8.28,2.71,1.4,1.35,1.85,5.72,.71,7.19-1.82,2.35-5.31,3.41-8.99,5.53Z"/><path class="cls-1" d="M220.39,201.24c.03,4.35-3.19,10.01-5.67,9.47-3.86-.83-5.07-4-5.11-7.59-.04-3.65,1.32-7,5.19-7.35,3.09-.28,5.8,1.53,5.59,5.47Z"/><path class="cls-1" d="M335.34,200.86c.58-3.01,.89-4.59,1.41-7.28,2.95,1.06,5.59,1.94,8.15,2.99,.26,.11,.28,1.7,.15,1.74-2.87,.83-5.77,1.55-9.72,2.55Z"/><path class="cls-1" d="M344.94,209.84c-2.52,.44-5.04,.87-8.03,1.39-.15-2.08-.27-3.66-.49-6.65,3.54,1.12,6.27,1.98,8.99,2.84l-.48,2.42Z"/><path class="cls-1" d="M242.32,198.4c-.52,5.78-2.67,8.57-8.8,8.16,2.97-2.76,5.48-5.09,8.8-8.16Z"/></g></svg>