<svg width="28" height="38" viewBox="0 0 28 38" fill="none" xmlns="http://www.w3.org/2000/svg">
<mask id="path-1-outside-1_2648_8353" maskUnits="userSpaceOnUse" x="0" y="0" width="28" height="38" fill="black">
<rect fill="white" width="28" height="38"/>
<path fill-rule="evenodd" clip-rule="evenodd" d="M16.1823 30.3501C21.2346 24.2494 25 19.7027 25 14.25C25 8.0368 20.0751 3 14 3C7.92487 3 3 8.0368 3 14.25C3 19.7027 6.76538 24.2494 11.8177 30.3501C12.5224 31.201 13.252 32.082 14 33C14.748 32.082 15.4776 31.201 16.1823 30.3501ZM13.9998 20.4961C17.3749 20.4961 20.1109 17.6979 20.1109 14.2461C20.1109 10.7943 17.3749 7.99609 13.9998 7.99609C10.6247 7.99609 7.88867 10.7943 7.88867 14.2461C7.88867 17.6979 10.6247 20.4961 13.9998 20.4961Z"/>
</mask>
<path d="M16.1823 30.3501L13.8717 28.4366L16.1823 30.3501ZM11.8177 30.3501L9.50721 32.2636L9.50721 32.2636L11.8177 30.3501ZM14 33L11.6743 34.895L14 37.7493L16.3257 34.895L14 33ZM22 14.25C22 16.2371 21.3275 18.1929 19.924 20.4958C18.4874 22.8531 16.4397 25.3359 13.8717 28.4366L18.4928 32.2636C20.9772 29.2637 23.3383 26.4228 25.0475 23.6183C26.7898 20.7595 28 17.7157 28 14.25H22ZM14 6C18.3551 6 22 9.62974 22 14.25H28C28 6.44386 21.7952 0 14 0V6ZM6 14.25C6 9.62974 9.64492 6 14 6V0C6.20481 0 0 6.44386 0 14.25H6ZM14.1283 28.4366C11.5603 25.3359 9.51259 22.8531 8.07598 20.4958C6.67248 18.1929 6 16.2371 6 14.25H0C0 17.7157 1.2102 20.7595 2.95249 23.6183C4.66166 26.4228 7.02279 29.2637 9.50721 32.2636L14.1283 28.4366ZM16.3257 31.105C15.569 30.1763 14.8319 29.2863 14.1283 28.4366L9.50721 32.2636C10.2128 33.1157 10.935 33.9878 11.6743 34.895L16.3257 31.105ZM13.8717 28.4366C13.1681 29.2863 12.431 30.1763 11.6743 31.105L16.3257 34.895C17.065 33.9878 17.7872 33.1157 18.4928 32.2636L13.8717 28.4366ZM17.1109 14.2461C17.1109 16.1049 15.6548 17.4961 13.9998 17.4961V23.4961C19.0949 23.4961 23.1109 19.2908 23.1109 14.2461H17.1109ZM13.9998 10.9961C15.6548 10.9961 17.1109 12.3873 17.1109 14.2461H23.1109C23.1109 9.20137 19.0949 4.99609 13.9998 4.99609V10.9961ZM10.8887 14.2461C10.8887 12.3873 12.3448 10.9961 13.9998 10.9961V4.99609C8.90466 4.99609 4.88867 9.20137 4.88867 14.2461H10.8887ZM13.9998 17.4961C12.3448 17.4961 10.8887 16.1049 10.8887 14.2461H4.88867C4.88867 19.2908 8.90466 23.4961 13.9998 23.4961V17.4961Z" fill="#5A5A5A" mask="url(#path-1-outside-1_2648_8353)"/>
</svg>
