<?xml version="1.0"?>
<svg width="644.94" height="155.64" xmlns="http://www.w3.org/2000/svg" xmlns:svg="http://www.w3.org/2000/svg">
 <g class="layer">
  <title>Layer 1</title>
  <path d="m128.44,129.13c-12.31,17.01 -21.79,21.22 -40.72,10.3c-10.9,-6.28 -18.46,-16.17 -25.94,-26.01c-0.79,-1.04 -1.53,-2.12 -2.25,-3.12c-22.63,5.74 -39.49,-9.24 -44.81,-25.67c-7.13,-21.99 1.48,-42.48 21.11,-50.95c13.56,-5.85 26.76,-5.92 39.51,2.37c18.51,12.04 22.97,44.5 8.17,60.82c-2.9,3.2 -4.21,5.68 -0.12,8.98c2.14,1.73 3.74,4.25 5.26,6.63c7.38,11.59 18.16,16.61 31.59,16.63c2.46,0 4.93,0 8.19,0l0.01,0.02zm-58.78,-40.67c3.56,-6.28 5.59,-13.18 4.54,-20.7c-1.4,-10 -6.83,-16.78 -16.6,-19.8c-7.25,-2.24 -18.1,1.38 -23.32,8.07c-8.46,10.85 -3.62,34.78 15.21,37.52c8.18,1.19 9.77,0.11 8.33,-7.78c-0.64,-3.53 1.24,-4.2 3.48,-3.16c2.87,1.34 5.3,3.65 8.35,5.85l0.01,0z" fill="#ffffff" id="svg_1"/>
  <path d="m239.2,27.89l17.43,0l0,44.85c4.85,-5.91 9.67,-11.49 14.12,-17.35c1.86,-2.45 3.41,-3.74 6.81,-3.34c4.86,0.56 9.83,0.14 15.77,0.14c-3.39,4.05 -6.35,7.53 -9.25,11.06c-3.27,3.97 -6.76,7.81 -9.6,12.07c-0.81,1.22 -0.31,4.2 0.69,5.57c6.86,9.36 14.02,18.5 21.53,28.3c-6.77,0.39 -12.82,0.86 -18.88,0.96c-1.1,0.02 -2.48,-1.27 -3.29,-2.31c-5.11,-6.51 -10.09,-13.13 -15.47,-20.16c-6.7,6.62 -1.67,14.94 -4.06,21.79c-5.09,0.31 -10.18,0.62 -15.8,0.97l0,-82.55z" fill="#ffffff" id="svg_2"/>
  <path d="m446.09,72.93c5.4,-5.67 10.8,-11.34 16.18,-17.03c0.85,-0.9 1.54,-2.73 2.36,-2.77c6.06,-0.24 12.12,-0.13 17.58,-0.13c-6.75,7.7 -13.96,15.92 -20.89,23.82c8.25,11.42 15.9,22 24.18,33.45c-6.75,0 -12.49,0.14 -18.21,-0.12c-1.12,-0.05 -2.36,-1.52 -3.22,-2.59c-4.97,-6.2 -9.85,-12.48 -15.15,-19.23c-6.09,6.59 -1.77,14.34 -4.16,21.09l-14.8,0l0,-82.21c5.33,0.33 10.72,0.67 16.97,1.07c-0.8,14.69 -1.58,29.16 -2.37,43.62l1.53,1.04l0,-0.01z" fill="#ffffff" id="svg_3"/>
  <path d="m542.05,86.28l-41.08,0l-0.98,1.65c1.86,2.04 3.37,4.65 5.64,5.99c5.87,3.46 12.41,3.78 17.91,-0.25c3.85,-2.82 6.58,-1.92 9.68,0.2c2.15,1.47 4.09,3.25 6.11,4.89c-8.92,11.28 -27.05,15.94 -38.51,10.03c-11.18,-5.77 -23.25,-21.04 -18.25,-35.8c4.1,-12.1 15.49,-23.99 31.95,-21.81c18.16,2.4 24.99,11.35 27.52,35.1l0.01,0zm-17.64,-11.28c-1.53,-6.61 -6.23,-9.83 -13.11,-9.5c-6.45,0.31 -9.16,2.83 -10.03,9.5l23.13,0l0.01,0z" fill="#ffffff" id="svg_4"/>
  <path d="m150.03,108.7c-4.8,0.65 -9.35,1.27 -14.63,1.98c-0.33,-1.42 -0.79,-3.43 -1.33,-5.8c-1.18,0.61 -2.36,1.09 -3.4,1.77c-15.81,10.3 -31.96,2.73 -33.13,-16.11c-0.8,-12.91 -0.15,-25.9 -0.15,-38.88l16.27,0c0,9.18 -0.07,17.95 0.04,26.72c0.03,2.8 0.15,5.7 0.88,8.38c1.44,5.28 6.36,8.24 11.49,7.37c3.93,-0.66 6.81,-4.52 6.86,-9.72c0.1,-10.94 0.03,-21.88 0.03,-32.78l17.07,0l0,57.07z" fill="#ffffff" id="svg_5"/>
  <path d="m351.58,30.11c-0.5,6.1 -0.96,11.69 -1.46,17.72l-19.36,0l0,62.3l-18.24,0l0,-62.64l-21.4,0l0,-17.38l60.47,0l-0.01,0z" fill="#ffffff" id="svg_6"/>
  <path d="m624.41,69.6c-3.92,-1.57 -7.54,-3.23 -11.31,-4.42c-1.63,-0.52 -3.73,-0.5 -5.32,0.08c-1.34,0.49 -2.27,2.14 -3.38,3.27c1.04,0.94 1.93,2.31 3.15,2.73c3.44,1.19 7.13,1.73 10.52,3.03c3.83,1.47 7.96,2.87 11.06,5.4c7.72,6.3 6.9,18.36 -1.77,25.19c-9.8,7.72 -20.98,8.62 -31.97,3.27c-12.72,-6.19 -9.93,-5.42 -4.2,-14.33c0.69,-1.07 1.26,-2.23 1.15,-2.04c6.43,1.68 12.32,3.58 18.35,4.54c1.57,0.25 3.61,-2.43 5.44,-3.77c-1.5,-1.31 -2.79,-3.14 -4.54,-3.8c-2.44,-0.92 -5.21,-0.94 -7.83,-1.4c-10.75,-1.9 -17.41,-8.56 -17.42,-17.4c-0.02,-9.49 6.83,-16.81 17.47,-18.67c8.95,-1.57 20.37,1.2 28.27,6.83c-2.53,3.79 -5.06,7.59 -7.66,11.49l-0.01,0z" fill="#ffffff" id="svg_7"/>
  <path d="m233.9,62.09c-2.93,3.57 -5.83,7.1 -8.72,10.63c-8.86,-7.38 -17.58,-7.63 -24.22,-0.67c-4.43,4.64 -4.71,12.38 -0.62,16.82c6.37,6.91 13.7,6.78 22.32,0.07c4.03,3.46 7.97,6.86 11.99,10.31c-20.96,15.3 -36.22,15.65 -46.64,1.4c-11.79,-16.12 -9.61,-33.22 5.71,-44.68c12.57,-9.41 30.38,-6.63 40.18,6.11l0,0.01z" fill="#ffffff" id="svg_8"/>
  <path d="m550.42,65.79c-2.23,0.33 -4.29,0.64 -6.89,1.04c-0.41,-4.21 -0.83,-8.56 -1.3,-13.38c3.29,-0.19 6.19,-0.35 9.5,-0.54l0,-15.77c6.06,0.41 11.92,0.82 17.88,1.22l0,14.15l11.79,0c-0.42,5.19 -0.82,10.09 -1.26,15.39c-3.61,-0.67 -6.82,-1.26 -10.33,-1.91c0,8.27 -0.19,16.18 0.07,24.08c0.14,4.3 3.45,4.98 7.12,5.23c2.45,0.17 5.96,-1.14 6.37,3.5c0.66,7.38 -0.18,10.05 -4.91,11.35c-12.91,3.54 -27.07,-0.68 -27.97,-18.95c-0.41,-8.27 -0.07,-16.57 -0.07,-25.41z" fill="#ffffff" id="svg_9"/>
  <path d="m424.48,98.35c-3.1,2.21 -5.97,4.17 -8.75,6.25c-8.1,6.06 -17.08,8 -26.22,3.57c-9.74,-4.73 -15.3,-13.06 -16.12,-24.09c-0.85,-11.44 1.81,-21.35 11.89,-28.37c6.17,-4.29 12.81,-5.51 19.88,-4.01c4.85,1.03 9.66,2.61 14.17,4.64c1.55,0.7 3.3,3.8 2.93,5.3c-0.85,3.42 -2.79,6.63 -4.71,9.67c-0.33,0.52 -2.82,0.02 -4.12,-0.5c-2.74,-1.07 -5.23,-3.07 -8.03,-3.61c-7.96,-1.55 -15.13,3.69 -15.89,11.14c-0.96,9.26 4.01,15.16 13.18,15.37c2.28,0.05 4.67,-0.36 6.86,-1.06c8.13,-2.59 10.07,-1.95 14.94,5.69l-0.01,0.01z" fill="#ffffff" id="svg_10"/>
  <path d="m175.32,110.35l-16.54,0l0,-58.17l16.54,0l0,58.17z" fill="#ffffff" id="svg_11"/>
  <path d="m351.78,52.95l16.26,0l0,56.45l-16.26,0l0,-56.45z" fill="#ffffff" id="svg_12"/>
  <path d="m167.3,45.61c-7.1,0.08 -10.99,-3.41 -10.98,-9.86c0,-5.97 2.9,-8.33 10.27,-8.41c6.4,-0.07 11.82,3.46 11.72,7.62c-0.14,5.33 -5.57,10.59 -11.01,10.66l0,-0.01z" fill="#ffffff" id="svg_13"/>
  <path d="m354.11,36.64c-0.05,-6.07 2.44,-9.47 7.01,-9.56c5.26,-0.11 11.32,4.2 11.24,7.99c-0.08,4.15 -5.07,10.68 -8.23,10.77c-5.83,0.17 -9.97,-3.63 -10.02,-9.2z" fill="#ffffff" id="svg_14"/>
 </g>
</svg>