<svg width="38" height="39" viewBox="0 0 38 39" fill="none" xmlns="http://www.w3.org/2000/svg">
<mask id="path-1-inside-1_2694_3713" fill="white">
<path d="M37.2952 13.6719L33.8475 10.2242C33.5693 9.94981 33.1985 9.78957 32.808 9.77511C32.4175 9.76065 32.0358 9.89301 31.7381 10.1461C31.2785 10.5373 30.6887 10.7416 30.0856 10.7184C29.4825 10.6952 28.9101 10.4464 28.4819 10.0211C28.0568 9.59287 27.8081 9.02063 27.7849 8.41772C27.7618 7.8148 27.9659 7.22517 28.3569 6.76562C28.61 6.46793 28.7423 6.08621 28.7279 5.69575C28.7134 5.30528 28.5532 4.93441 28.2787 4.65625L24.828 1.20469C24.5363 0.913623 24.1412 0.750153 23.7291 0.750153C23.3171 0.750153 22.9219 0.913623 22.6303 1.20469L17.1342 6.7C16.7949 7.04054 16.539 7.455 16.3866 7.91093C16.3569 7.99859 16.3074 8.07823 16.242 8.14367C16.1765 8.20911 16.0969 8.2586 16.0092 8.28828C15.5531 8.4407 15.1386 8.6969 14.7983 9.03671L0.704533 23.1305C0.41347 23.4221 0.25 23.8173 0.25 24.2293C0.25 24.6413 0.41347 25.0365 0.704533 25.3281L4.1561 28.7758C4.43425 29.0502 4.80513 29.2104 5.1956 29.2249C5.58606 29.2393 5.96777 29.107 6.26547 28.8539C6.72397 28.4595 7.31457 28.253 7.91892 28.2757C8.52327 28.2984 9.09671 28.5486 9.52435 28.9763C9.95199 29.4039 10.2022 29.9774 10.2249 30.5817C10.2476 31.186 10.0411 31.7766 9.64672 32.2351C9.39364 32.5328 9.26128 32.9146 9.27574 33.305C9.2902 33.6955 9.45044 34.0664 9.72484 34.3445L13.1725 37.7922C13.4641 38.0832 13.8593 38.2467 14.2713 38.2467C14.6833 38.2467 15.0785 38.0832 15.3702 37.7922L29.4639 23.6984C29.8035 23.3583 30.0597 22.9441 30.2123 22.4883C30.2419 22.4003 30.2914 22.3204 30.357 22.2548C30.4226 22.1892 30.5025 22.1397 30.5905 22.1101C31.0462 21.9577 31.4604 21.7018 31.8006 21.3625L37.2959 15.8664C37.5859 15.5748 37.7487 15.1802 37.7485 14.769C37.7484 14.3577 37.5854 13.9633 37.2952 13.6719ZM19.4537 11.3555C19.3377 11.4716 19.1999 11.5637 19.0482 11.6265C18.8965 11.6893 18.7339 11.7217 18.5698 11.7217C18.4056 11.7217 18.243 11.6893 18.0913 11.6265C17.9397 11.5637 17.8019 11.4716 17.6858 11.3555L16.7866 10.4562C16.5578 10.2206 16.431 9.90451 16.4335 9.57616C16.436 9.24781 16.5675 8.93363 16.7998 8.70149C17.032 8.46936 17.3463 8.33793 17.6746 8.3356C18.003 8.33328 18.319 8.46024 18.5545 8.68906L19.4537 9.58749C19.5699 9.70357 19.662 9.84138 19.7248 9.99306C19.7876 10.1447 19.82 10.3073 19.82 10.4715C19.82 10.6357 19.7876 10.7982 19.7248 10.9499C19.662 11.1016 19.5699 11.2394 19.4537 11.3555ZM22.8912 14.793C22.6569 15.0272 22.339 15.1588 22.0077 15.1588C21.6763 15.1588 21.3585 15.0272 21.1241 14.793L20.2647 13.9336C20.1486 13.8175 20.0565 13.6797 19.9937 13.528C19.9309 13.3763 19.8985 13.2138 19.8985 13.0496C19.8985 12.8854 19.9309 12.7229 19.9937 12.5712C20.0565 12.4195 20.1486 12.2817 20.2647 12.1656C20.4991 11.9312 20.8171 11.7995 21.1487 11.7995C21.3128 11.7995 21.4754 11.8318 21.6271 11.8946C21.7788 11.9574 21.9166 12.0495 22.0327 12.1656L22.892 13.025C23.0085 13.1411 23.101 13.279 23.1641 13.4308C23.2272 13.5827 23.2597 13.7455 23.2598 13.91C23.2599 14.0744 23.2275 14.2373 23.1645 14.3892C23.1016 14.5411 23.0092 14.6791 22.8928 14.7953L22.8912 14.793ZM26.3287 18.2305C26.2127 18.3466 26.0749 18.4387 25.9232 18.5015C25.7715 18.5643 25.6089 18.5967 25.4448 18.5967C25.2806 18.5967 25.118 18.5643 24.9663 18.5015C24.8147 18.4387 24.6769 18.3466 24.5608 18.2305L23.7014 17.3711C23.4727 17.1355 23.3459 16.8193 23.3483 16.491C23.3508 16.1627 23.4824 15.8485 23.7146 15.6163C23.9468 15.3842 24.2611 15.2528 24.5894 15.2504C24.9178 15.2481 25.2339 15.3751 25.4694 15.6039L26.3287 16.4633C26.4456 16.5792 26.5384 16.717 26.6018 16.8688C26.6653 17.0206 26.6981 17.1835 26.6985 17.348C26.6988 17.5126 26.6667 17.6756 26.6039 17.8277C26.5412 17.9798 26.449 18.118 26.3327 18.2344L26.3287 18.2305ZM29.7998 21.7101C29.6838 21.8263 29.546 21.9184 29.3943 21.9812C29.2426 22.044 29.08 22.0764 28.9159 22.0764C28.7517 22.0764 28.5891 22.044 28.4374 21.9812C28.2858 21.9184 28.1479 21.8263 28.0319 21.7101L27.1381 20.8117C27.0196 20.696 26.9252 20.5578 26.8606 20.4053C26.7959 20.2528 26.7622 20.0889 26.7614 19.9233C26.7606 19.7576 26.7927 19.5934 26.8559 19.4403C26.9192 19.2872 27.0122 19.1481 27.1296 19.0313C27.247 18.9144 27.3865 18.8221 27.54 18.7596C27.6934 18.6971 27.8577 18.6658 28.0234 18.6674C28.1891 18.669 28.3528 18.7035 28.505 18.7689C28.6572 18.8343 28.7948 18.9293 28.91 19.0484L29.8045 19.9461C29.9206 20.0622 30.0126 20.2001 30.0754 20.3518C30.1382 20.5035 30.1704 20.6661 30.1704 20.8302C30.1703 20.9944 30.1379 21.157 30.075 21.3086C30.0121 21.4603 29.9199 21.598 29.8037 21.7141L29.7998 21.7101Z"/>
</mask>
<path d="M37.2952 13.6719L33.8475 10.2242C33.5693 9.94981 33.1985 9.78957 32.808 9.77511C32.4175 9.76065 32.0358 9.89301 31.7381 10.1461C31.2785 10.5373 30.6887 10.7416 30.0856 10.7184C29.4825 10.6952 28.9101 10.4464 28.4819 10.0211C28.0568 9.59287 27.8081 9.02063 27.7849 8.41772C27.7618 7.8148 27.9659 7.22517 28.3569 6.76562C28.61 6.46793 28.7423 6.08621 28.7279 5.69575C28.7134 5.30528 28.5532 4.93441 28.2787 4.65625L24.828 1.20469C24.5363 0.913623 24.1412 0.750153 23.7291 0.750153C23.3171 0.750153 22.9219 0.913623 22.6303 1.20469L17.1342 6.7C16.7949 7.04054 16.539 7.455 16.3866 7.91093C16.3569 7.99859 16.3074 8.07823 16.242 8.14367C16.1765 8.20911 16.0969 8.2586 16.0092 8.28828C15.5531 8.4407 15.1386 8.6969 14.7983 9.03671L0.704533 23.1305C0.41347 23.4221 0.25 23.8173 0.25 24.2293C0.25 24.6413 0.41347 25.0365 0.704533 25.3281L4.1561 28.7758C4.43425 29.0502 4.80513 29.2104 5.1956 29.2249C5.58606 29.2393 5.96777 29.107 6.26547 28.8539C6.72397 28.4595 7.31457 28.253 7.91892 28.2757C8.52327 28.2984 9.09671 28.5486 9.52435 28.9763C9.95199 29.4039 10.2022 29.9774 10.2249 30.5817C10.2476 31.186 10.0411 31.7766 9.64672 32.2351C9.39364 32.5328 9.26128 32.9146 9.27574 33.305C9.2902 33.6955 9.45044 34.0664 9.72484 34.3445L13.1725 37.7922C13.4641 38.0832 13.8593 38.2467 14.2713 38.2467C14.6833 38.2467 15.0785 38.0832 15.3702 37.7922L29.4639 23.6984C29.8035 23.3583 30.0597 22.9441 30.2123 22.4883C30.2419 22.4003 30.2914 22.3204 30.357 22.2548C30.4226 22.1892 30.5025 22.1397 30.5905 22.1101C31.0462 21.9577 31.4604 21.7018 31.8006 21.3625L37.2959 15.8664C37.5859 15.5748 37.7487 15.1802 37.7485 14.769C37.7484 14.3577 37.5854 13.9633 37.2952 13.6719ZM19.4537 11.3555C19.3377 11.4716 19.1999 11.5637 19.0482 11.6265C18.8965 11.6893 18.7339 11.7217 18.5698 11.7217C18.4056 11.7217 18.243 11.6893 18.0913 11.6265C17.9397 11.5637 17.8019 11.4716 17.6858 11.3555L16.7866 10.4562C16.5578 10.2206 16.431 9.90451 16.4335 9.57616C16.436 9.24781 16.5675 8.93363 16.7998 8.70149C17.032 8.46936 17.3463 8.33793 17.6746 8.3356C18.003 8.33328 18.319 8.46024 18.5545 8.68906L19.4537 9.58749C19.5699 9.70357 19.662 9.84138 19.7248 9.99306C19.7876 10.1447 19.82 10.3073 19.82 10.4715C19.82 10.6357 19.7876 10.7982 19.7248 10.9499C19.662 11.1016 19.5699 11.2394 19.4537 11.3555ZM22.8912 14.793C22.6569 15.0272 22.339 15.1588 22.0077 15.1588C21.6763 15.1588 21.3585 15.0272 21.1241 14.793L20.2647 13.9336C20.1486 13.8175 20.0565 13.6797 19.9937 13.528C19.9309 13.3763 19.8985 13.2138 19.8985 13.0496C19.8985 12.8854 19.9309 12.7229 19.9937 12.5712C20.0565 12.4195 20.1486 12.2817 20.2647 12.1656C20.4991 11.9312 20.8171 11.7995 21.1487 11.7995C21.3128 11.7995 21.4754 11.8318 21.6271 11.8946C21.7788 11.9574 21.9166 12.0495 22.0327 12.1656L22.892 13.025C23.0085 13.1411 23.101 13.279 23.1641 13.4308C23.2272 13.5827 23.2597 13.7455 23.2598 13.91C23.2599 14.0744 23.2275 14.2373 23.1645 14.3892C23.1016 14.5411 23.0092 14.6791 22.8928 14.7953L22.8912 14.793ZM26.3287 18.2305C26.2127 18.3466 26.0749 18.4387 25.9232 18.5015C25.7715 18.5643 25.6089 18.5967 25.4448 18.5967C25.2806 18.5967 25.118 18.5643 24.9663 18.5015C24.8147 18.4387 24.6769 18.3466 24.5608 18.2305L23.7014 17.3711C23.4727 17.1355 23.3459 16.8193 23.3483 16.491C23.3508 16.1627 23.4824 15.8485 23.7146 15.6163C23.9468 15.3842 24.2611 15.2528 24.5894 15.2504C24.9178 15.2481 25.2339 15.3751 25.4694 15.6039L26.3287 16.4633C26.4456 16.5792 26.5384 16.717 26.6018 16.8688C26.6653 17.0206 26.6981 17.1835 26.6985 17.348C26.6988 17.5126 26.6667 17.6756 26.6039 17.8277C26.5412 17.9798 26.449 18.118 26.3327 18.2344L26.3287 18.2305ZM29.7998 21.7101C29.6838 21.8263 29.546 21.9184 29.3943 21.9812C29.2426 22.044 29.08 22.0764 28.9159 22.0764C28.7517 22.0764 28.5891 22.044 28.4374 21.9812C28.2858 21.9184 28.1479 21.8263 28.0319 21.7101L27.1381 20.8117C27.0196 20.696 26.9252 20.5578 26.8606 20.4053C26.7959 20.2528 26.7622 20.0889 26.7614 19.9233C26.7606 19.7576 26.7927 19.5934 26.8559 19.4403C26.9192 19.2872 27.0122 19.1481 27.1296 19.0313C27.247 18.9144 27.3865 18.8221 27.54 18.7596C27.6934 18.6971 27.8577 18.6658 28.0234 18.6674C28.1891 18.669 28.3528 18.7035 28.505 18.7689C28.6572 18.8343 28.7948 18.9293 28.91 19.0484L29.8045 19.9461C29.9206 20.0622 30.0126 20.2001 30.0754 20.3518C30.1382 20.5035 30.1704 20.6661 30.1704 20.8302C30.1703 20.9944 30.1379 21.157 30.075 21.3086C30.0121 21.4603 29.9199 21.598 29.8037 21.7141L29.7998 21.7101Z" stroke="white" stroke-width="5" mask="url(#path-1-inside-1_2694_3713)"/>
</svg>
