<?xml version="1.0" standalone="no"?>
<!DOCTYPE svg PUBLIC "-//W3C//DTD SVG 20010904//EN"
 "http://www.w3.org/TR/2001/REC-SVG-20010904/DTD/svg10.dtd">
<svg version="1.0" xmlns="http://www.w3.org/2000/svg"
 width="512.000000pt" height="512.000000pt" viewBox="0 0 512.000000 512.000000"
 preserveAspectRatio="xMidYMid meet">

<g transform="translate(0.000000,512.000000) scale(0.100000,-0.100000)"
fill="#fafafa" stroke="none">
<path d="M2330 5110 c-199 -18 -464 -78 -649 -146 -237 -88 -529 -254 -727
-414 -101 -82 -302 -283 -384 -384 -160 -198 -326 -490 -414 -727 -124 -336
-178 -742 -146 -1097 19 -216 76 -470 146 -661 88 -237 254 -529 414 -727 82
-101 283 -302 384 -384 198 -160 490 -326 727 -414 336 -124 742 -178 1097
-146 216 19 470 76 661 146 237 88 529 254 727 414 101 82 302 283 384 384
160 198 326 490 414 727 70 191 127 445 146 661 32 355 -22 761 -146 1097 -88
237 -254 529 -414 727 -82 101 -283 302 -384 384 -198 160 -490 326 -727 414
-337 124 -747 178 -1109 146z m455 -790 c129 -40 222 -96 315 -190 97 -97 149
-180 186 -295 119 -374 -32 -759 -366 -931 -117 -61 -198 -79 -360 -79 -162 0
-243 18 -360 79 -226 116 -369 327 -401 589 -20 162 17 348 98 487 57 98 190
227 288 277 150 76 228 93 405 88 93 -2 143 -9 195 -25z m-10 -2005 c703 -82
1270 -393 1314 -720 l8 -58 -61 -81 c-133 -178 -362 -379 -563 -494 -565 -324
-1261 -324 -1826 0 -201 115 -430 316 -563 494 l-61 81 8 58 c33 247 362 488
854 628 332 95 617 124 890 92z"/>
</g>
</svg>
