<?xml version="1.0" encoding="UTF-8"?>
<svg version="1.1" xmlns="http://www.w3.org/2000/svg" width="550" height="275">
<path d="M0 0 C0.66480613 -0.00235223 1.32961226 -0.00470446 2.01456404 -0.00712797 C4.24611564 -0.01379411 6.47760869 -0.01336047 8.70916939 -0.01294994 C10.32384172 -0.01625007 11.93851322 -0.01997595 13.55318367 -0.02409142 C17.99374748 -0.0341029 22.43429776 -0.03782686 26.87487125 -0.04048073 C31.66312356 -0.04438639 36.45136519 -0.05396465 41.23961067 -0.0626936 C52.80610832 -0.08245212 64.37260683 -0.09252411 75.93911713 -0.10142139 C81.38836899 -0.10580588 86.83761987 -0.11117233 92.28687096 -0.11641026 C110.40625176 -0.13342304 128.52563197 -0.14791616 146.64501953 -0.155159 C151.34667016 -0.15706884 156.04832078 -0.15898918 160.74997139 -0.16094494 C162.50279555 -0.16167055 162.50279555 -0.16167055 164.2910303 -0.16241082 C183.21136546 -0.17070716 202.13163731 -0.19603719 221.05194484 -0.22852562 C240.48500008 -0.26162187 259.91802319 -0.27961014 279.35110676 -0.28280324 C290.25874832 -0.28496611 301.16629761 -0.29368206 312.07391167 -0.31926441 C321.36557421 -0.34100658 330.65712207 -0.34900458 339.94880717 -0.33929763 C344.68586319 -0.33476294 349.42268275 -0.33659063 354.15970612 -0.35605907 C358.50521886 -0.37376341 362.85032393 -0.37263455 367.19584145 -0.35716178 C368.75921059 -0.35479667 370.32260851 -0.35905167 371.88593386 -0.37099043 C382.58942783 -0.4475986 395.90621128 -0.25556806 404.94528389 6.30218983 C408.05668734 10.06180233 409.88963123 13.97651517 411.78903389 18.44672108 C415.46955648 26.98742093 419.33285415 34.88310175 427.47653389 39.94672108 C428.31571358 40.48941639 429.15489326 41.0321117 430.01950264 41.59125233 C434.53380606 43.72165836 439.47317436 44.82080484 444.28903389 46.13422108 C444.28903389 57.35422108 444.28903389 68.57422108 444.28903389 80.13422108 C440.32903389 81.78422108 436.36903389 83.43422108 432.28903389 85.13422108 C425.88046367 89.21240212 422.46692924 95.20600366 420.71823311 102.52240467 C417.51812867 118.55152477 416.65085228 137.5887979 426.03903389 151.69672108 C429.19933621 155.49546831 432.7788548 157.29607652 437.28903389 159.13422108 C443.18189103 161.91993536 443.18189103 161.91993536 444.28903389 164.13422108 C444.37490198 166.45838404 444.39614432 168.78505414 444.38669014 171.11078358 C444.38456772 172.13865482 444.38456772 172.13865482 444.38240242 173.18729115 C444.37680064 175.37797868 444.36424795 177.56856438 444.35153389 179.75922108 C444.34651911 181.2435946 444.34195617 182.72796973 444.33786201 184.21234608 C444.32683066 187.85300423 444.30956488 191.49360272 444.28903389 195.13422108 C443.73965157 195.38591053 443.19026924 195.63759998 442.62423897 195.89691639 C440.11330222 197.05218555 437.60744217 198.21808725 435.10153389 199.38422108 C434.23721748 199.77996326 433.37290108 200.17570545 432.48239326 200.58343983 C420.91009437 205.99271364 415.5505615 213.55348426 409.85153389 224.82172108 C405.55002564 232.99169983 400.22561124 238.30430492 391.28903389 241.13422108 C382.10452402 243.18101326 373.03903339 243.42105027 363.67923164 243.39491749 C362.12935126 243.39794365 360.57947238 243.40183545 359.02959609 243.40651006 C354.80058027 243.41673901 350.5716497 243.41462133 346.34262705 243.41032946 C341.7698829 243.40785289 337.19715878 243.41688796 332.62442207 243.42436695 C323.67710135 243.43709054 314.72981067 243.43891053 305.78248242 243.43656669 C298.50601447 243.43478061 291.22955562 243.43653937 283.95308876 243.44079113 C282.39715319 243.44168391 282.39715319 243.44168391 280.80978458 243.44259473 C278.70222268 243.44380654 276.59466079 243.44502067 274.4870989 243.44623711 C254.73937018 243.4571038 234.99165856 243.45495438 215.24392888 243.44885226 C197.20093739 243.44368487 179.15799992 243.45493542 161.11501911 243.47395048 C142.56427328 243.49334995 124.01355297 243.50158112 105.46279693 243.49782723 C95.05771275 243.49591826 84.65267452 243.49837298 74.24759865 243.51254177 C65.38872673 243.52448349 56.52992905 243.52582929 47.67105606 243.5137516 C43.15664822 243.50788226 38.642376 243.50670931 34.12797737 243.51875401 C29.98505246 243.52967853 25.84237531 243.52643229 21.69946167 243.51249232 C20.21098574 243.50986332 18.72248997 243.51215454 17.23403361 243.52022818 C4.4088515 243.58489445 -12.40054099 243.64520933 -22.45705986 234.55609608 C-26.13738374 230.65446096 -28.84623919 226.35611467 -31.58596611 221.75922108 C-40.26377645 207.35739354 -49.90203943 201.53868442 -64.71096611 194.13422108 C-64.71096611 183.57422108 -64.71096611 173.01422108 -64.71096611 162.13422108 C-59.76096611 160.15422108 -59.76096611 160.15422108 -54.71096611 158.13422108 C-46.3520239 152.83096469 -43.25797955 145.95988394 -40.96096611 136.63422108 C-37.91002606 120.87384017 -39.16484722 106.07583851 -48.08205986 92.28656483 C-52.78661162 86.07023864 -57.60226449 83.68857189 -64.71096611 80.13422108 C-64.71096611 68.91422108 -64.71096611 57.69422108 -64.71096611 46.13422108 C-60.42096611 45.14422108 -56.13096611 44.15422108 -51.71096611 43.13422108 C-42.09778561 37.83464721 -36.63964541 31.6451247 -32.21096611 21.63422108 C-27.98277046 12.10703017 -23.65490723 6.52793135 -14.14065361 2.04437733 C-9.4185423 0.27548354 -5.02057279 0.00758537 0 0 Z " fill="#FBD41F" transform="translate(85.71096611022949,17.865778923034668)"/>
<path d="M0 0 C0.66480613 -0.00235223 1.32961226 -0.00470446 2.01456404 -0.00712797 C4.24611564 -0.01379411 6.47760869 -0.01336047 8.70916939 -0.01294994 C10.32384172 -0.01625007 11.93851322 -0.01997595 13.55318367 -0.02409142 C17.99374748 -0.0341029 22.43429776 -0.03782686 26.87487125 -0.04048073 C31.66312356 -0.04438639 36.45136519 -0.05396465 41.23961067 -0.0626936 C52.80610832 -0.08245212 64.37260683 -0.09252411 75.93911713 -0.10142139 C81.38836899 -0.10580588 86.83761987 -0.11117233 92.28687096 -0.11641026 C110.40625176 -0.13342304 128.52563197 -0.14791616 146.64501953 -0.155159 C151.34667016 -0.15706884 156.04832078 -0.15898918 160.74997139 -0.16094494 C162.50279555 -0.16167055 162.50279555 -0.16167055 164.2910303 -0.16241082 C183.21136546 -0.17070716 202.13163731 -0.19603719 221.05194484 -0.22852562 C240.48500008 -0.26162187 259.91802319 -0.27961014 279.35110676 -0.28280324 C290.25874832 -0.28496611 301.16629761 -0.29368206 312.07391167 -0.31926441 C321.36557421 -0.34100658 330.65712207 -0.34900458 339.94880717 -0.33929763 C344.68586319 -0.33476294 349.42268275 -0.33659063 354.15970612 -0.35605907 C358.50521886 -0.37376341 362.85032393 -0.37263455 367.19584145 -0.35716178 C368.75921059 -0.35479667 370.32260851 -0.35905167 371.88593386 -0.37099043 C382.58942783 -0.4475986 395.90621128 -0.25556806 404.94528389 6.30218983 C408.05668734 10.06180233 409.88963123 13.97651517 411.78903389 18.44672108 C415.46955648 26.98742093 419.33285415 34.88310175 427.47653389 39.94672108 C428.31571358 40.48941639 429.15489326 41.0321117 430.01950264 41.59125233 C434.53380606 43.72165836 439.47317436 44.82080484 444.28903389 46.13422108 C444.28903389 57.35422108 444.28903389 68.57422108 444.28903389 80.13422108 C440.32903389 81.78422108 436.36903389 83.43422108 432.28903389 85.13422108 C425.88046367 89.21240212 422.46692924 95.20600366 420.71823311 102.52240467 C417.51812867 118.55152477 416.65085228 137.5887979 426.03903389 151.69672108 C429.19933621 155.49546831 432.7788548 157.29607652 437.28903389 159.13422108 C443.18189103 161.91993536 443.18189103 161.91993536 444.28903389 164.13422108 C444.37490198 166.45838404 444.39614432 168.78505414 444.38669014 171.11078358 C444.38456772 172.13865482 444.38456772 172.13865482 444.38240242 173.18729115 C444.37680064 175.37797868 444.36424795 177.56856438 444.35153389 179.75922108 C444.34651911 181.2435946 444.34195617 182.72796973 444.33786201 184.21234608 C444.32683066 187.85300423 444.30956488 191.49360272 444.28903389 195.13422108 C443.73965157 195.38591053 443.19026924 195.63759998 442.62423897 195.89691639 C440.11330222 197.05218555 437.60744217 198.21808725 435.10153389 199.38422108 C434.23721748 199.77996326 433.37290108 200.17570545 432.48239326 200.58343983 C420.91009437 205.99271364 415.5505615 213.55348426 409.85153389 224.82172108 C405.55002564 232.99169983 400.22561124 238.30430492 391.28903389 241.13422108 C382.10452402 243.18101326 373.03903339 243.42105027 363.67923164 243.39491749 C362.12935126 243.39794365 360.57947238 243.40183545 359.02959609 243.40651006 C354.80058027 243.41673901 350.5716497 243.41462133 346.34262705 243.41032946 C341.7698829 243.40785289 337.19715878 243.41688796 332.62442207 243.42436695 C323.67710135 243.43709054 314.72981067 243.43891053 305.78248242 243.43656669 C298.50601447 243.43478061 291.22955562 243.43653937 283.95308876 243.44079113 C282.39715319 243.44168391 282.39715319 243.44168391 280.80978458 243.44259473 C278.70222268 243.44380654 276.59466079 243.44502067 274.4870989 243.44623711 C254.73937018 243.4571038 234.99165856 243.45495438 215.24392888 243.44885226 C197.20093739 243.44368487 179.15799992 243.45493542 161.11501911 243.47395048 C142.56427328 243.49334995 124.01355297 243.50158112 105.46279693 243.49782723 C95.05771275 243.49591826 84.65267452 243.49837298 74.24759865 243.51254177 C65.38872673 243.52448349 56.52992905 243.52582929 47.67105606 243.5137516 C43.15664822 243.50788226 38.642376 243.50670931 34.12797737 243.51875401 C29.98505246 243.52967853 25.84237531 243.52643229 21.69946167 243.51249232 C20.21098574 243.50986332 18.72248997 243.51215454 17.23403361 243.52022818 C4.4088515 243.58489445 -12.40054099 243.64520933 -22.45705986 234.55609608 C-26.13738374 230.65446096 -28.84623919 226.35611467 -31.58596611 221.75922108 C-40.26377645 207.35739354 -49.90203943 201.53868442 -64.71096611 194.13422108 C-64.71096611 183.57422108 -64.71096611 173.01422108 -64.71096611 162.13422108 C-59.76096611 160.15422108 -59.76096611 160.15422108 -54.71096611 158.13422108 C-46.3520239 152.83096469 -43.25797955 145.95988394 -40.96096611 136.63422108 C-37.91002606 120.87384017 -39.16484722 106.07583851 -48.08205986 92.28656483 C-52.78661162 86.07023864 -57.60226449 83.68857189 -64.71096611 80.13422108 C-64.71096611 68.91422108 -64.71096611 57.69422108 -64.71096611 46.13422108 C-60.42096611 45.14422108 -56.13096611 44.15422108 -51.71096611 43.13422108 C-42.09778561 37.83464721 -36.63964541 31.6451247 -32.21096611 21.63422108 C-27.98277046 12.10703017 -23.65490723 6.52793135 -14.14065361 2.04437733 C-9.4185423 0.27548354 -5.02057279 0.00758537 0 0 Z M266.38945198 19.11162281 C233.75487722 19.04905886 201.12054653 19.02767212 168.48591833 19.05681538 C164.22945384 19.0605778 159.97298912 19.06395081 155.71652412 19.06708241 C154.44584555 19.06802714 154.44584555 19.06802714 153.1494967 19.06899095 C139.38407261 19.07828796 125.61887216 19.05571003 111.85349492 19.02165132 C97.69377688 18.98732385 83.53435371 18.98700416 69.37462729 19.01839167 C60.65248317 19.03665493 51.93119582 19.02840267 43.2091318 18.98606832 C37.2417364 18.95964042 31.27495006 18.96620947 25.30758772 18.99887847 C21.86522526 19.01674763 18.42447622 19.01997591 14.9822197 18.98399639 C11.25059444 18.95258189 7.52326865 18.97626027 3.79179573 19.01396656 C2.70416665 18.99164194 1.61653758 18.96931731 0.49595004 18.94631618 C-5.17908749 19.02174994 -5.17908749 19.02174994 -9.70173323 22.11435521 C-11.25258172 24.39800912 -12.52821689 26.64286414 -13.71096611 29.13422108 C-14.40705986 30.51674061 -14.40705986 30.51674061 -15.11721611 31.92718983 C-15.47815361 32.71738514 -15.83909111 33.50758045 -16.21096611 34.32172108 C-21.71655029 44.60847047 -31.45667825 53.75331649 -41.82034111 59.02093983 C-44.02594649 60.13487593 -44.02594649 60.13487593 -45.71096611 63.13422108 C-46.22138516 65.63954874 -46.22138516 65.63954874 -45.71096611 68.13422108 C-43.95634252 69.79767737 -43.95634252 69.79767737 -41.58596611 71.00922108 C-30.49021455 77.92672869 -25.23344475 89.828448 -21.77346611 102.13422108 C-18.95216212 116.31083551 -19.44852874 132.31804476 -23.71096611 146.13422108 C-23.98940361 147.04172108 -24.26784111 147.94922108 -24.55471611 148.88422108 C-28.09193068 158.88600019 -34.68426042 165.49536655 -42.86721611 171.99359608 C-44.96626926 173.98216862 -44.96626926 173.98216862 -44.81252861 176.65375233 C-43.34989611 179.94726878 -41.57248387 181.08206551 -38.58596611 183.07172108 C-37.58436455 183.76910389 -36.58276299 184.4664867 -35.55080986 185.18500233 C-34.1450872 186.14986561 -34.1450872 186.14986561 -32.71096611 187.13422108 C-22.59764043 194.22376454 -16.04006697 206.0156142 -10.28127861 216.70843983 C-8.57603279 219.34266285 -7.39834099 220.53382442 -4.71096611 222.13422108 C-1.69980797 222.57698059 -1.69980797 222.57698059 1.69241524 222.49498463 C3.01052193 222.49910862 4.32862862 222.50323261 5.68667793 222.50748158 C7.14560332 222.4968647 8.60452664 222.48596028 10.06344795 222.47479725 C11.60096406 222.47395096 13.13848138 222.47442616 14.67599678 222.47612476 C18.84928666 222.47698606 23.02231824 222.45933858 27.19554806 222.43840289 C31.55708001 222.41965852 35.91861778 222.41788742 40.28018379 222.41432667 C48.53911131 222.40499961 56.7979198 222.3803769 65.05679488 222.3502782 C74.45935218 222.31675474 83.86191513 222.30025335 93.26451731 222.28519189 C112.60610404 222.2538279 131.94752759 222.19880759 151.28903389 222.13422108 C151.28903389 201.67422108 151.28903389 181.21422108 151.28903389 160.13422108 C100.46903389 160.13422108 49.64903389 160.13422108 -2.71096611 160.13422108 C-2.71096611 157.49422108 -2.71096611 154.85422108 -2.71096611 152.13422108 C90.01903389 152.13422108 182.74903389 152.13422108 278.28903389 152.13422108 C277.95903389 154.44422108 277.62903389 156.75422108 277.28903389 159.13422108 C239.00903389 159.46422108 200.72903389 159.79422108 161.28903389 160.13422108 C161.28903389 180.59422108 161.28903389 201.05422108 161.28903389 222.13422108 C205.83903389 222.13422108 250.38903389 222.13422108 296.28903389 222.13422108 C296.28903389 155.14422108 296.28903389 88.15422108 296.28903389 19.13422108 C286.32239405 19.13422108 276.35602256 19.13269921 266.38945198 19.11162281 Z " fill="#030200" transform="translate(85.71096611022949,17.865778923034668)"/>
<path d="M0 0 C24.42 0 48.84 0 74 0 C77.96 7.26 81.92 14.52 86 22 C91.71219613 29.56262587 97.06976671 33.6766486 105.27734375 38.015625 C108.54180942 40.39489122 109.12946021 42.12363414 110 46 C109.20335937 46.54527344 108.40671875 47.09054688 107.5859375 47.65234375 C93.13854349 57.93424825 87.89385609 71.10001559 84.625 88.25 C82.74209256 102.16045901 84.0527437 115.25425654 88.875 128.375 C89.11943848 129.04128418 89.36387695 129.70756836 89.61572266 130.39404297 C92.98645541 139.10450701 98.5604803 144.7406684 105.30664062 150.96484375 C105.92345703 151.55652344 106.54027344 152.14820313 107.17578125 152.7578125 C107.74208252 153.2852002 108.30838379 153.81258789 108.8918457 154.35595703 C110 156 110 156 109.86083984 158.06616211 C108.41050975 161.32426326 105.276215 162.68827372 102.3125 164.4375 C88.55360371 172.72756054 81.7562158 183.50185894 76.375 198.5 C75 202 75 202 73 203 C48.91 203 24.82 203 0 203 C0 136.01 0 69.02 0 0 Z " fill="#FCD51F" transform="translate(401,38)"/>
<path d="M0 0 C7.18522971 4.49955676 10.81348927 8.89634118 12.99609375 17.25 C13.87876982 22.65639093 12.57043635 27.19073563 10.5546875 32.171875 C9.889847 34.64526765 10.10960656 35.86665739 10.99609375 38.25 C11.65609375 39.24 12.31609375 40.23 12.99609375 41.25 C12.99609375 44.57398122 11.6964891 45.56387154 9.37109375 48 C6.74234965 50.05865501 5.83808138 50.26874723 2.30859375 50.6875 C-1.00390625 50.25 -1.00390625 50.25 -4.00390625 48.25 C-6.66870241 48.61010759 -9.11837881 49.28460798 -11.69140625 50.0625 C-19.69595186 50.51558749 -28.06147247 45.3174742 -34.00390625 40.25 C-38.91764677 34.33402346 -40.59585476 26.09100479 -40.375 18.54296875 C-39.21432541 11.37122155 -34.53628801 6.09964108 -29.0234375 1.69140625 C-20.50092204 -4.39139492 -9.28100931 -4.90445997 0 0 Z " fill="#030300" transform="translate(137.00390625,55.75)"/>
<path d="M0 0 C0.98613281 0.00451172 1.97226562 0.00902344 2.98828125 0.01367188 C5.36725797 0.02522031 7.74609135 0.04149632 10.125 0.0625 C10.17891993 1.85383978 10.21775571 3.64563899 10.25 5.4375 C10.27320313 6.43523437 10.29640625 7.43296875 10.3203125 8.4609375 C10.125 11.0625 10.125 11.0625 8.125 13.0625 C5.97021484 13.38134766 5.97021484 13.38134766 3.3359375 13.4765625 C2.39492188 13.51523438 1.45390625 13.55390625 0.484375 13.59375 C-0.50046875 13.6246875 -1.4853125 13.655625 -2.5 13.6875 C-3.98886719 13.74550781 -3.98886719 13.74550781 -5.5078125 13.8046875 C-7.96335385 13.8991314 -10.4188841 13.98469875 -12.875 14.0625 C-12.875 15.7125 -12.875 17.3625 -12.875 19.0625 C-12.27437744 19.05726318 -11.67375488 19.05202637 -11.05493164 19.04663086 C-8.34913162 19.02591986 -5.64334823 19.01285875 -2.9375 19 C-1.99197266 18.99162109 -1.04644531 18.98324219 -0.07226562 18.97460938 C1.27641602 18.96977539 1.27641602 18.96977539 2.65234375 18.96484375 C3.90132446 18.95698853 3.90132446 18.95698853 5.17553711 18.94897461 C7.125 19.0625 7.125 19.0625 8.125 20.0625 C8.125 23.3625 8.125 26.6625 8.125 30.0625 C1.525 30.0625 -5.075 30.0625 -11.875 30.0625 C-11.875 32.3725 -11.875 34.6825 -11.875 37.0625 C-10.93648193 37.04678955 -10.93648193 37.04678955 -9.97900391 37.03076172 C-7.1527099 36.98926809 -4.32647989 36.96319527 -1.5 36.9375 C-0.51515625 36.92074219 0.4696875 36.90398437 1.484375 36.88671875 C2.89589844 36.87705078 2.89589844 36.87705078 4.3359375 36.8671875 C5.63990479 36.85147705 5.63990479 36.85147705 6.97021484 36.83544922 C9.125 37.0625 9.125 37.0625 11.125 39.0625 C11.125 42.6925 11.125 46.3225 11.125 50.0625 C-1.085 50.0625 -13.295 50.0625 -25.875 50.0625 C-25.875 33.8925 -25.875 17.7225 -25.875 1.0625 C-17.15234528 0.43945323 -8.7019781 -0.07823355 0 0 Z " fill="#050400" transform="translate(266.875,108.9375)"/>
<path d="M0 0 C0.99 0.66 1.98 1.32 3 2 C2.43454163 5.95820859 1.19097652 8.6659053 -1 12 C-7 11.33333333 -13 10.66666667 -19 10 C-18.67 11.32 -18.34 12.64 -18 14 C-16.98292969 14.23783203 -16.98292969 14.23783203 -15.9453125 14.48046875 C0.7827051 18.67405765 0.7827051 18.67405765 5 25 C5.87856835 30.20667349 5.55713202 34.77829142 2.875 39.375 C-1.3181322 45.23357344 -6.92488564 48.14908262 -13.95703125 49.328125 C-22.60708859 50.01389531 -30.40020175 45.22026798 -37 40 C-36.49477778 35.62140745 -33.82172778 33.18348776 -31 30 C-27.55843982 30.43019502 -25.0526778 31.46060161 -22.0625 33.125 C-18.36660407 35.0746377 -16.09528521 35.22858556 -12 34 C-12 32.68 -12 31.36 -12 30 C-13.64548828 29.52820313 -13.64548828 29.52820313 -15.32421875 29.046875 C-16.77882468 28.6151855 -18.23324199 28.18286009 -19.6875 27.75 C-20.40873047 27.54503906 -21.12996094 27.34007812 -21.87304688 27.12890625 C-27.07875869 25.56006159 -31.20093414 23.75856766 -34.2890625 19.0234375 C-36.01050298 14.12395305 -35.62519894 9.47774295 -33.625 4.75 C-24.49119532 -4.81874776 -11.63905328 -5.38707774 0 0 Z " fill="#050400" transform="translate(359,112)"/>
<path d="M0 0 C2.3821875 0.0928125 2.3821875 0.0928125 4.8125 0.1875 C5.1425 6.1275 5.4725 12.0675 5.8125 18.1875 C7.1325 16.516875 8.4525 14.84625 9.8125 13.125 C11.46742571 11.13600544 13.13383491 9.15650025 14.8125 7.1875 C15.44671875 6.43210937 16.0809375 5.67671875 16.734375 4.8984375 C19.8061529 1.70851429 21.72632316 0.32264643 26.203125 -0.234375 C29.43938297 -0.24838477 32.59230398 -0.12175663 35.8125 0.1875 C34.13374849 6.14763121 29.57858797 9.76843216 25.24804688 13.92773438 C21.66665064 17.46496031 21.66665064 17.46496031 20.625 22.234375 C22.06257838 25.80940545 24.05962484 28.56827711 26.5 31.5 C27.40965753 32.63633858 28.31720749 33.77436748 29.22265625 34.9140625 C29.66496582 35.46739258 30.10727539 36.02072266 30.56298828 36.59082031 C37.8125 45.85455744 37.8125 45.85455744 37.8125 49.1875 C25.09513074 50.22018863 25.09513074 50.22018863 20.875 46.6875 C17.99941379 43.69061115 15.52841752 40.33753776 13.171875 36.921875 C11.74738787 34.91826333 11.74738787 34.91826333 8.8125 33.1875 C6.46479357 36.70905964 6.43580386 38.69521843 6.1875 42.875 C6.06375 44.958125 5.94 47.04125 5.8125 49.1875 C1.1925 49.1875 -3.4275 49.1875 -8.1875 49.1875 C-8.26157457 42.69135037 -8.31606655 36.19544577 -8.35229492 29.69897461 C-8.36739525 27.48831908 -8.38787709 25.27769357 -8.41381836 23.06713867 C-8.45014655 19.89234007 -8.46721384 16.71793703 -8.48046875 13.54296875 C-8.49595261 12.55225876 -8.51143646 11.56154877 -8.52738953 10.54081726 C-8.52761612 9.62008926 -8.52784271 8.69936127 -8.52807617 7.75073242 C-8.53473801 6.9402092 -8.54139984 6.12968597 -8.54826355 5.29460144 C-7.69642773 0.31930808 -4.50072799 -0.17535304 0 0 Z " fill="#050400" transform="translate(200.1875,109.8125)"/>
<path d="M0 0 C4.29 0.33 8.58 0.66 13 1 C13.03867188 3.94486328 13.03867188 3.94486328 13.078125 6.94921875 C13.1344039 9.52866813 13.19175127 12.10809435 13.25 14.6875 C13.26417969 15.98107422 13.27835938 17.27464844 13.29296875 18.60742188 C13.32519531 19.85458984 13.35742188 21.10175781 13.390625 22.38671875 C13.41157227 23.53358154 13.43251953 24.68044434 13.45410156 25.86206055 C14.11211405 29.64445524 15.28929552 31.31873331 18 34 C21.44336774 35.32548832 21.44336774 35.32548832 25 35 C27.80107503 32.32718736 28.89706195 30.60901946 29.54589844 26.77026367 C29.57731934 24.98712769 29.57731934 24.98712769 29.609375 23.16796875 C29.65771484 21.22954102 29.65771484 21.22954102 29.70703125 19.25195312 C29.7217735 17.89713991 29.73609112 16.54232202 29.75 15.1875 C29.77817759 13.81311361 29.80810754 12.43876195 29.83984375 11.06445312 C29.91046478 7.70995398 29.95750509 4.35497333 30 1 C34.95 1 39.9 1 45 1 C45.29665919 34.35767746 45.29665919 34.35767746 40 42 C34.76841113 47.08930717 29.08258639 50.26797994 21.6875 50.375 C14.19645449 50.23384975 8.36024772 47.20709778 3 42 C-0.08821783 37.03108593 -0.40874939 33.19570913 -0.29296875 27.5390625 C-0.28872391 26.74849457 -0.28447906 25.95792664 -0.28010559 25.1434021 C-0.26341301 22.6369106 -0.22577983 20.13124539 -0.1875 17.625 C-0.17244092 15.91798042 -0.15875466 14.21094815 -0.14648438 12.50390625 C-0.11354056 8.33562275 -0.06182493 4.16795111 0 0 Z " fill="#030200" transform="translate(156,54)"/>
<path d="M0 0 C3.96 0.33 7.92 0.66 12 1 C12.33 6.28 12.66 11.56 13 17 C19.42946497 10.69620227 19.42946497 10.69620227 25.4375 4 C28 1 28 1 30 0 C31.81511524 0.03692723 33.62915338 0.15159798 35.4375 0.3125 C36.40558594 0.39113281 37.37367188 0.46976563 38.37109375 0.55078125 C41 1 41 1 44 3 C38.72 8.61 33.44 14.22 28 20 C29.7743943 24.43598575 31.12837074 26.65314806 34.125 30.1875 C34.92035156 31.13882813 35.71570313 32.09015625 36.53515625 33.0703125 C37.75525391 34.52050781 37.75525391 34.52050781 39 36 C40.5282791 37.84803437 42.04966882 39.70179855 43.5625 41.5625 C44.22378906 42.36816406 44.88507813 43.17382812 45.56640625 44.00390625 C47 46 47 46 47 48 C44.60455476 48.27720876 42.21272966 48.52225728 39.8125 48.75 C39.13896484 48.83121094 38.46542969 48.91242188 37.77148438 48.99609375 C34.33251181 49.29805232 32.31989677 49.18598649 29.3125 47.4375 C26.58194939 44.55935206 24.36952432 41.55389706 22.1875 38.25 C21.78080078 37.64800781 21.37410156 37.04601562 20.95507812 36.42578125 C19.9630383 34.95522809 18.98052112 33.47825841 18 32 C14.88214887 32.64644661 14.88214887 32.64644661 14 35 C13.77049681 37.204364 13.58924067 39.41392173 13.4375 41.625 C13.293125 43.72875 13.14875 45.8325 13 48 C6.565 48.495 6.565 48.495 0 49 C0 32.83 0 16.66 0 0 Z " fill="#020200" transform="translate(279,54)"/>
<path d="M0 0 C3.67376852 2.10111544 6.98172786 4.61425727 10.25390625 7.2890625 C9.84398437 7.83175781 9.4340625 8.37445313 9.01171875 8.93359375 C8.47289062 9.64902344 7.9340625 10.36445312 7.37890625 11.1015625 C6.84523437 11.80925781 6.3115625 12.51695313 5.76171875 13.24609375 C4.54575844 14.89362547 3.38974484 16.58530461 2.25390625 18.2890625 C-0.32817621 17.1414703 -2.01537914 16.04103648 -4.12109375 14.1015625 C-6.60895892 12.02829518 -6.60895892 12.02829518 -9.62109375 12.2265625 C-13.96896263 13.70483792 -18.62159742 16.04006984 -20.74609375 20.2890625 C-21.13465715 24.40783451 -21.20429838 26.57805532 -18.93359375 30.1015625 C-15.94359394 33.09156231 -14.29986803 34.21397446 -10.05859375 34.7890625 C-4.78911755 34.71085135 -1.52866069 31.6692287 2.25390625 28.2890625 C3.43856306 29.47976347 4.60103101 30.69256373 5.75390625 31.9140625 C6.7284375 32.92339844 6.7284375 32.92339844 7.72265625 33.953125 C9.65259479 36.89726593 9.53084993 38.8371573 9.25390625 42.2890625 C7.50709332 43.27390358 5.75632115 44.25172437 4.00390625 45.2265625 C3.029375 45.77183594 2.05484375 46.31710938 1.05078125 46.87890625 C-4.66447544 49.7604812 -10.4258948 50.03513755 -16.74609375 49.2890625 C-23.95308708 46.75010592 -30.36659154 41.59751029 -34.06640625 34.8984375 C-36.79447163 28.67921152 -38.1674174 23.37618674 -35.8984375 16.8515625 C-31.9870609 8.15372165 -25.97980142 1.37185448 -16.96484375 -2.0859375 C-10.63148229 -3.86998298 -5.86489207 -2.83554782 0 0 Z " fill="#050400" transform="translate(176.74609375,110.7109375)"/>
<path d="M0 0 C4.2498113 2.11734371 8.14451936 4.80974848 11.3125 8.375 C11.3125 9.035 11.3125 9.695 11.3125 10.375 C9.34375 12.1015625 9.34375 12.1015625 6.8125 14 C5.55953125 14.94746094 5.55953125 14.94746094 4.28125 15.9140625 C3.6315625 16.39617187 2.981875 16.87828125 2.3125 17.375 C1.58546875 16.941875 1.58546875 16.941875 0.84375 16.5 C-4.29544575 13.6536762 -7.8128165 12.6045497 -13.6875 13.375 C-16.4975346 15.16863911 -18.19690468 16.39380935 -19.6875 19.375 C-20.06462577 24.37191647 -19.78040612 27.36567725 -16.6875 31.375 C-12.66701724 34.05532184 -9.41342071 33.958447 -4.6875 33.375 C-1.94177272 31.89512037 -1.94177272 31.89512037 0.3125 30.375 C3.55326028 30.76861461 5.3210829 31.92931823 7.625 34.1875 C8.15738281 34.68894531 8.68976563 35.19039062 9.23828125 35.70703125 C10.3125 37.375 10.3125 37.375 10.23828125 39.37890625 C7.95560434 44.30062735 1.64312375 46.81855734 -3.125 48.8125 C-11.3834268 50.11646213 -17.48603197 48.71207007 -24.48828125 44.1171875 C-29.35253732 40.26379814 -32.42241689 35.47040042 -33.6875 29.375 C-34.39146311 21.71804739 -34.06767076 15.80792405 -29.6875 9.375 C-28.98625 8.323125 -28.285 7.27125 -27.5625 6.1875 C-20.35974875 -1.85226822 -9.82350399 -3.9460516 0 0 Z " fill="#050400" transform="translate(261.6875,54.625)"/>
<path d="M0 0 C12.87 0 25.74 0 39 0 C39 9 39 9 37.5 11 C35 12 35 12 27 13 C27 24.88 27 36.76 27 49 C22.05 49 17.1 49 12 49 C12 37.12 12 25.24 12 13 C8.04 13 4.08 13 0 13 C0 8.71 0 4.42 0 0 Z " fill="#070600" transform="translate(77,110)"/>
<path d="M0 0 C12.87 0 25.74 0 39 0 C39 4.29 39 8.58 39 13 C35.37 13 31.74 13 28 13 C28 24.88 28 36.76 28 49 C23.05 49 18.1 49 13 49 C12.67 37.12 12.34 25.24 12 13 C8.37 12.67 4.74 12.34 1 12 C0.67 8.04 0.34 4.08 0 0 Z " fill="#050400" transform="translate(281,110)"/>
<path d="M0 0 C4.1555885 1.48973927 5.3558114 2.19585526 7.3125 6.1875 C8.16072392 12.9829303 8.04795328 19.33528986 4.3125 25.1875 C1.29946002 27.28352781 -0.57676964 28.1875 -4.25 28.1875 C-7.57307202 26.8241884 -9.40372924 24.92802491 -11.6875 22.1875 C-11.6875 21.1975 -11.6875 20.2075 -11.6875 19.1875 C-6.2425 20.6725 -6.2425 20.6725 -0.6875 22.1875 C-1.74499919 17.95750325 -1.88782488 17.63819644 -5.25 15.4375 C-5.89066406 15.00953125 -6.53132813 14.5815625 -7.19140625 14.140625 C-7.68511719 13.82609375 -8.17882812 13.5115625 -8.6875 13.1875 C-11.55617231 14.57014837 -14.24774032 16.10898553 -16.9375 17.8125 C-17.64390625 18.25851563 -18.3503125 18.70453125 -19.078125 19.1640625 C-19.60921875 19.50179687 -20.1403125 19.83953125 -20.6875 20.1875 C-19.73875 20.455625 -18.79 20.72375 -17.8125 21 C-14.6875 22.1875 -14.6875 22.1875 -12.6875 25.1875 C-15.82817245 28.32817245 -18.89538056 28.16571454 -23.23828125 28.28515625 C-24.47964844 28.27355469 -25.72101563 28.26195312 -27 28.25 C-28.25425781 28.24097656 -29.50851562 28.23195312 -30.80078125 28.22265625 C-31.75339844 28.21105469 -32.70601563 28.19945312 -33.6875 28.1875 C-33.32116337 20.86076733 -33.32116337 20.86076733 -30.6875 18.0625 C-28.9279922 16.96280762 -27.16421971 15.86979411 -25.390625 14.79296875 C-24.58109375 14.28378906 -23.7715625 13.77460938 -22.9375 13.25 C-22.15890625 12.78722656 -21.3803125 12.32445312 -20.578125 11.84765625 C-18.20018027 9.75958495 -18.00102916 8.27576221 -17.6875 5.1875 C-18.44675781 5.5484375 -19.20601563 5.909375 -19.98828125 6.28125 C-20.98214844 6.7453125 -21.97601563 7.209375 -23 7.6875 C-23.98613281 8.1515625 -24.97226562 8.615625 -25.98828125 9.09375 C-28.6875 10.1875 -28.6875 10.1875 -31.6875 10.1875 C-31.72991723 7.85455225 -31.72842937 5.52047433 -31.6875 3.1875 C-29.84632698 1.34632698 -27.03733191 1.92855559 -24.5625 1.875 C-18.65072362 1.89451081 -15.39838937 2.68172187 -10.6875 6.1875 C-10.26339844 5.74277344 -9.83929688 5.29804688 -9.40234375 4.83984375 C-6.16592722 1.71723527 -4.62456265 0.23514725 0 0 Z " fill="#0C0A01" transform="translate(333.6875,190.8125)"/>
<path d="M0 0 C4.29 0 8.58 0 13 0 C13 16.5 13 33 13 50 C8.71 49.67 4.42 49.34 0 49 C0 32.83 0 16.66 0 0 Z " fill="#0A0901" transform="translate(208,54)"/>
<path d="M0 0 C4.29 0 8.58 0 13 0 C13 15.84 13 31.68 13 48 C8.71 48 4.42 48 0 48 C0 32.16 0 16.32 0 0 Z " fill="#000000" transform="translate(121,111)"/>
<path d="M0 0 C1.54882668 0.00502497 3.09765493 0.00958612 4.64648438 0.01367188 C8.41019576 0.02459862 12.17383015 0.04180825 15.9375 0.0625 C15.9375 1.0525 15.9375 2.0425 15.9375 3.0625 C9.46955867 4.57483701 3.58159958 5.27682579 -3.0625 5.0625 C-3.0625 5.7225 -3.0625 6.3825 -3.0625 7.0625 C3.2075 7.0625 9.4775 7.0625 15.9375 7.0625 C15.9375 9.7025 15.9375 12.3425 15.9375 15.0625 C1.4175 15.0625 -13.1025 15.0625 -28.0625 15.0625 C-28.0625 10.0625 -28.0625 10.0625 -26.0625 8.0625 C-22.8046875 7.8671875 -22.8046875 7.8671875 -18.9375 7.9375 C-17.01550781 7.96457031 -17.01550781 7.96457031 -15.0546875 7.9921875 C-13.57355469 8.02699219 -13.57355469 8.02699219 -12.0625 8.0625 C-12.0625 7.4025 -12.0625 6.7425 -12.0625 6.0625 C-12.88234375 6.00191406 -13.7021875 5.94132813 -14.546875 5.87890625 C-15.62453125 5.79511719 -16.7021875 5.71132812 -17.8125 5.625 C-18.87984375 5.54378906 -19.9471875 5.46257812 -21.046875 5.37890625 C-23.49929962 5.12159227 -25.70171291 4.74437782 -28.0625 4.0625 C-28.0625 3.4025 -28.0625 2.7425 -28.0625 2.0625 C-20.22192194 -1.85778903 -8.63631305 -0.04891788 0 0 Z " fill="#070600" transform="translate(452.0625,139.9375)"/>
<path d="M0 0 C12.97435897 0 12.97435897 0 18 4 C20.55261109 6.85596487 21.89199359 9.42580664 22.15625 13.27734375 C21.82518214 18.25163833 20.82109788 21.58112295 17 25 C10.77223786 28.61210204 7.91356919 28 0 28 C0 18.76 0 9.52 0 0 Z " fill="#070601" transform="translate(344,191)"/>
<path d="M0 0 C3.47998516 2.00292479 5.7068445 4.12053349 7 8 C7.49470704 13.62019635 7.76832892 18.43590185 5.25 23.5625 C0.46019417 28.75145631 0.46019417 28.75145631 -3.9375 29.5 C-8.16220396 28.81025241 -9.40310447 27.36894555 -12 24 C-14.52757363 19.16727921 -15.87663014 14.45458751 -15 9 C-11.03322644 2.23101025 -8.17335777 -0.81733578 0 0 Z " fill="#070601" transform="translate(167,191)"/>
<path d="M0 0 C12.66666667 0 12.66666667 0 17 2 C17.66 2.66 18.32 3.32 19 4 C18.9765625 6.57421875 18.9765625 6.57421875 18.625 9.6875 C18.25813211 13.2001546 17.93561611 16.59464239 18.0625 20.125 C18 23 18 23 16 25 C13.828125 25.6328125 13.828125 25.6328125 11.25 26.125 C10.40953125 26.29257813 9.5690625 26.46015625 8.703125 26.6328125 C6 27 6 27 0 27 C0 18.09 0 9.18 0 0 Z " fill="#070500" transform="translate(280,192)"/>
<path d="M0 0 C6.93 0 13.86 0 21 0 C19 4 19 4 16 6 C13.73828125 6.4140625 13.73828125 6.4140625 11.3125 6.625 C10.50425781 6.69976562 9.69601563 6.77453125 8.86328125 6.8515625 C7.94095703 6.92503906 7.94095703 6.92503906 7 7 C7 7.99 7 8.98 7 10 C13.93 10.495 13.93 10.495 21 11 C20.34 12.65 19.68 14.3 19 16 C16.6875 16.78515625 16.6875 16.78515625 14 17.0625 C11.34778923 17.2676181 11.34778923 17.2676181 9 18 C8.34 19.32 7.68 20.64 7 22 C11.62 22 16.24 22 21 22 C20.67 23.32 20.34 24.64 20 26 C15.95085312 28.42491282 11.76372672 28.23796857 7.1875 28.125 C4.815625 28.08375 2.44375 28.0425 0 28 C0 18.76 0 9.52 0 0 Z " fill="#100E02" transform="translate(129,191)"/>
<path d="M0 0 C2.88233248 2.48928714 4.88863572 4.83295358 7 8 C7.25 11.5625 7.25 11.5625 7 15 C6.34 15.66 5.68 16.32 5 17 C0.78152721 16.61650247 -3.02373258 15.42009551 -7 14 C-6.01 17.3 -5.02 20.6 -4 24 C-9.2688427 23.58675744 -12.22944438 22.77055562 -16 19 C-18.53482149 15.49953223 -18.57167124 12.21607539 -18 8 C-15.69698884 4.06105677 -13.07439558 1.53719779 -9 -0.5 C-5.52630035 -1.07894994 -3.36529363 -1.07402988 0 0 Z " fill="#F5CF1E" transform="translate(130,67)"/>
<path d="M0 0 C2.38671875 0.61328125 2.38671875 0.61328125 5 2 C7.38849926 7.82859034 9.11843911 15.78644939 8 22 C6.2867273 24.64587986 4.40230695 26.95243786 2 29 C1.34 29 0.68 29 0 29 C0 27.35 0 25.7 0 24 C-4.62 24 -9.24 24 -14 24 C-12.39974324 19.19922971 -10.6248466 15.19629616 -8.125 10.875 C-7.78597656 10.26785156 -7.44695312 9.66070312 -7.09765625 9.03515625 C-5.09131567 5.53359608 -2.99894367 2.70308376 0 0 Z " fill="#070600" transform="translate(189,191)"/>
<path d="M0 0 C6.08722746 -0.04934154 12.1743392 -0.08569167 18.26171875 -0.10986328 C20.33367947 -0.11993712 22.40562593 -0.13359666 24.47753906 -0.15087891 C27.45120764 -0.17506664 30.4246887 -0.18646908 33.3984375 -0.1953125 C34.32868744 -0.20563507 35.25893738 -0.21595764 36.21737671 -0.22659302 C37.07811798 -0.22674408 37.93885925 -0.22689514 38.82568359 -0.22705078 C39.58513275 -0.231492 40.34458191 -0.23593323 41.12704468 -0.24050903 C43 0 43 0 45 2 C44.67 3.98 44.34 5.96 44 8 C29.48 8 14.96 8 0 8 C0 5.36 0 2.72 0 0 Z " fill="#010100" transform="translate(424,216)"/>
<path d="M0 0 C14.52 0 29.04 0 44 0 C44 2.64 44 5.28 44 8 C29.48 8 14.96 8 0 8 C0 5.36 0 2.72 0 0 Z " fill="#0D0B01" transform="translate(424,160)"/>
<path d="M0 0 C0.83208984 -0.0004985 1.66417969 -0.00099701 2.52148438 -0.00151062 C4.27997222 0.00082889 6.03846347 0.01055023 7.796875 0.02709961 C10.48988765 0.05069266 13.18191027 0.04765976 15.875 0.04101562 C17.58333924 0.04659248 19.29167431 0.0537024 21 0.0625 C21.80630859 0.06158859 22.61261719 0.06067719 23.44335938 0.05973816 C27.30831979 0.1088018 29.21103717 0.17063936 32.5 2.36328125 C32.8125 4.86328125 32.8125 4.86328125 32.5 7.36328125 C30.5 9.36328125 30.5 9.36328125 28.15625 9.59375 C15.59654284 9.42276389 3.04901102 8.89547481 -9.5 8.36328125 C-10.16 6.71328125 -10.82 5.06328125 -11.5 3.36328125 C-8.19955315 -0.4936298 -4.78980327 -0.05470967 0 0 Z " fill="#0C0A01" transform="translate(435.5,182.63671875)"/>
<path d="M0 0 C6.08722746 -0.04934154 12.1743392 -0.08569167 18.26171875 -0.10986328 C20.33367947 -0.11993712 22.40562593 -0.13359666 24.47753906 -0.15087891 C27.45120764 -0.17506664 30.4246887 -0.18646908 33.3984375 -0.1953125 C34.32868744 -0.20563507 35.25893738 -0.21595764 36.21737671 -0.22659302 C37.07811798 -0.22674408 37.93885925 -0.22689514 38.82568359 -0.22705078 C39.58513275 -0.231492 40.34458191 -0.23593323 41.12704468 -0.24050903 C43 0 43 0 45 2 C44.9375 4 44.9375 4 44 6 C39.47605075 8.52357859 35.00684385 8.2580309 29.98046875 8.1953125 C29.12189774 8.1924826 28.26332672 8.18965271 27.3787384 8.18673706 C24.64818125 8.1755807 21.9179573 8.15048459 19.1875 8.125 C17.33138496 8.11496432 15.47526476 8.1058395 13.61914062 8.09765625 C9.07929954 8.07565626 4.53970619 8.04115781 0 8 C0 5.36 0 2.72 0 0 Z " fill="#1A1603" transform="translate(424,119)"/>
<path d="M0 0 C5.94 0 11.88 0 18 0 C18.33 1.32 18.66 2.64 19 4 C14.8794254 5.99785435 11.54805635 6.17835515 7 6 C7 7.98 7 9.96 7 12 C10.63 12 14.26 12 18 12 C18.33 13.32 18.66 14.64 19 16 C16.50494038 18.49505962 15.32671112 18.35948376 11.875 18.625 C10.96492188 18.69976562 10.05484375 18.77453125 9.1171875 18.8515625 C8.06917969 18.92503906 8.06917969 18.92503906 7 19 C7 21.97 7 24.94 7 28 C4.69 28 2.38 28 0 28 C0 18.76 0 9.52 0 0 Z " fill="#0C0A01" transform="translate(107,191)"/>
<path d="M0 0 C3.0625 2.125 3.0625 2.125 5 5 C5.07385766 9.13602924 4.42515807 11.34027196 2.1875 14.8125 C0.16558673 16.83441327 -1.36201742 17.9636497 -4 19 C-1.36 19.33 1.28 19.66 4 20 C4 22.31 4 24.62 4 27 C-2.27 27 -8.54 27 -15 27 C-12.77158035 19.20053121 -12.77158035 19.20053121 -7.9375 15.375 C-4.11961676 12.45388808 -4.11961676 12.45388808 -2.19140625 8.2265625 C-2.12824219 7.49179688 -2.06507813 6.75703125 -2 6 C-6.05606165 6.46800711 -9.46588679 6.87953208 -13 9 C-12.52213868 2.66833751 -12.52213868 2.66833751 -10.4375 0 C-6.80479468 -1.49034064 -3.65259242 -1.16940706 0 0 Z " fill="#0E0C01" transform="translate(272,192)"/>
<path d="M0 0 C1.68216214 0.00031737 3.36434441 0.01165683 5.04638672 0.03173828 C6.37390457 0.03598312 6.37390457 0.03598312 7.72824097 0.04031372 C10.56098834 0.05152838 13.39342206 0.07663508 16.22607422 0.10205078 C18.14403841 0.11207893 20.06200755 0.12120507 21.97998047 0.12939453 C26.68713298 0.15147189 31.39405038 0.18601033 36.10107422 0.22705078 C36.48170642 2.55313648 36.81377367 4.88760342 37.10107422 7.22705078 C35.12879065 9.19933435 31.28993951 8.39095578 28.59326172 8.39501953 C27.83441681 8.39834793 27.0755719 8.40167633 26.29373169 8.40510559 C24.68134163 8.41018094 23.06894101 8.41251373 21.45654297 8.41235352 C19.00714307 8.41452326 16.55820582 8.43262528 14.10888672 8.45166016 C12.54117992 8.45459744 10.97347099 8.45657999 9.40576172 8.45751953 C8.31628738 8.46829781 8.31628738 8.46829781 7.20480347 8.47929382 C2.43133274 8.45822232 -1.41598109 7.70924961 -5.89892578 6.22705078 C-5.89892578 0.83190305 -5.36747357 0.31257047 0 0 Z " fill="#110F02" transform="translate(430.89892578125,68.77294921875)"/>
<path d="M0 0 C5.96313166 -0.02464574 11.92623395 -0.042834 17.8894043 -0.05493164 C19.91968298 -0.05997278 21.94995802 -0.06680557 23.98022461 -0.07543945 C26.89177347 -0.08751467 29.8032745 -0.09323034 32.71484375 -0.09765625 C33.6283812 -0.10281754 34.54191864 -0.10797882 35.48313904 -0.11329651 C37.65575427 -0.11349168 39.82827296 -0.06211805 42 0 C43 1 43 1 43.0625 4.0625 C43.041875 5.031875 43.02125 6.00125 43 7 C33.2025803 7.81766841 23.45574074 8.10808811 13.625 8.125 C12.51326416 8.12951172 11.40152832 8.13402344 10.25610352 8.13867188 C9.21510498 8.13673828 8.17410645 8.13480469 7.1015625 8.1328125 C6.16650879 8.13168457 5.23145508 8.13055664 4.26806641 8.12939453 C2 8 2 8 0 7 C0 4.69 0 2.38 0 0 Z " fill="#0E0C01" transform="translate(424,81)"/>
<path d="M0 0 C14.85 0 29.7 0 45 0 C45 1.98 45 3.96 45 6 C44 7 44 7 42.20933533 7.12025452 C41.42990067 7.11803391 40.650466 7.11581329 39.84741211 7.11352539 C38.96657455 7.11344986 38.085737 7.11337433 37.1782074 7.11329651 C36.22092239 7.10813522 35.26363739 7.10297394 34.27734375 7.09765625 C33.30213272 7.0962413 32.32692169 7.09482635 31.32215881 7.09336853 C28.19390857 7.08775133 25.06572877 7.07519593 21.9375 7.0625 C19.82226666 7.05748722 17.70703219 7.05292393 15.59179688 7.04882812 C10.39450704 7.03777631 5.19725855 7.02102146 0 7 C0 4.69 0 2.38 0 0 Z " fill="#110E02" transform="translate(424,130)"/>
<path d="M0 0 C5.94481181 -0.04934399 11.88950509 -0.08569282 17.83447266 -0.10986328 C19.85793127 -0.11993671 21.88137528 -0.13359595 23.90478516 -0.15087891 C26.80895589 -0.17506847 29.71293461 -0.18646949 32.6171875 -0.1953125 C33.52556366 -0.20563507 34.43393982 -0.21595764 35.36984253 -0.22659302 C36.21056305 -0.22674408 37.05128357 -0.22689514 37.91748047 -0.22705078 C39.03000687 -0.23371262 39.03000687 -0.23371262 40.16500854 -0.24050903 C42 0 42 0 44 2 C44 3.32 44 4.64 44 6 C40.57246776 7.71376612 36.64203256 7.1414536 32.87109375 7.1328125 C31.96625748 7.13376923 31.0614212 7.13472595 30.12916565 7.13571167 C28.21509736 7.13639273 26.30102676 7.13454361 24.38696289 7.13037109 C21.44607396 7.12501561 18.50533733 7.13032178 15.56445312 7.13671875 C13.70833299 7.13605808 11.85221296 7.13477714 9.99609375 7.1328125 C8.66800941 7.13584885 8.66800941 7.13584885 7.31309509 7.13894653 C1.11495408 7.11495408 1.11495408 7.11495408 0 6 C-0.04080783 4.00041636 -0.04254356 1.99954746 0 0 Z " fill="#0F0D02" transform="translate(424,172)"/>
<path d="M0 0 C5.96313166 -0.02464574 11.92623395 -0.042834 17.8894043 -0.05493164 C19.91968298 -0.05997278 21.94995802 -0.06680557 23.98022461 -0.07543945 C26.89177347 -0.08751467 29.8032745 -0.09323034 32.71484375 -0.09765625 C33.6283812 -0.10281754 34.54191864 -0.10797882 35.48313904 -0.11329651 C37.65575427 -0.11349168 39.82827296 -0.06211805 42 0 C43 1 43 1 43.125 3.5 C43 6 43 6 42 7 C38.98191937 7.101137 35.98719487 7.13968909 32.96875 7.1328125 C32.06249878 7.13376923 31.15624756 7.13472595 30.22253418 7.13571167 C28.30248953 7.13639353 26.38244259 7.13453882 24.46240234 7.13037109 C21.51264296 7.12502292 18.56303586 7.13031588 15.61328125 7.13671875 C13.75260383 7.13605797 11.8919265 7.13477681 10.03125 7.1328125 C8.69846008 7.13584885 8.69846008 7.13584885 7.33874512 7.13894653 C1.11494988 7.11494988 1.11494988 7.11494988 0 6 C-0.04080783 4.00041636 -0.04254356 1.99954746 0 0 Z " fill="#020200" transform="translate(425,57)"/>
<path d="M0 0 C7.26 0 14.52 0 22 0 C20.95172977 6.28962141 19.02206102 10.58731579 16.1875 16.1875 C15.74857422 17.08919922 15.30964844 17.99089844 14.85742188 18.91992188 C14.42365234 19.78552734 13.98988281 20.65113281 13.54296875 21.54296875 C12.9555188 22.7189563 12.9555188 22.7189563 12.35620117 23.91870117 C10.82116199 26.27445438 9.40349682 27.55281086 7 29 C6.01 29 5.02 29 4 29 C4.63888887 23.93959451 6.86279277 19.71988466 9.0625 15.1875 C9.43955078 14.39923828 9.81660156 13.61097656 10.20507812 12.79882812 C11.13170161 10.86347527 12.06517467 8.93140451 13 7 C11.84371094 7.03480469 11.84371094 7.03480469 10.6640625 7.0703125 C9.66117188 7.08835938 8.65828125 7.10640625 7.625 7.125 C6.62726563 7.14820313 5.62953125 7.17140625 4.6015625 7.1953125 C2 7 2 7 0 5 C0 3.35 0 1.7 0 0 Z " fill="#0C0A01" transform="translate(199,191)"/>
<path d="M0 0 C13.86 0 27.72 0 42 0 C42.66 1.32 43.32 2.64 44 4 C41.36697076 6.63302924 40.06698859 6.30208329 36.390625 6.4140625 C34.67818604 6.47231201 34.67818604 6.47231201 32.93115234 6.53173828 C31.71637207 6.56251465 30.5015918 6.59329102 29.25 6.625 C27.41429443 6.68083252 27.41429443 6.68083252 25.54150391 6.73779297 C6.01082075 7.30100337 6.01082075 7.30100337 1 7 C0.67 6.67 0.34 6.34 0 6 C0 4.02 0 2.04 0 0 Z " fill="#0F0C02" transform="translate(424,206)"/>
<path d="M0 0 C6.27 0.33 12.54 0.66 19 1 C16 5 16 5 13.73828125 5.609375 C12.53751953 5.67898437 12.53751953 5.67898437 11.3125 5.75 C10.50425781 5.80671875 9.69601563 5.8634375 8.86328125 5.921875 C8.24839844 5.94765625 7.63351563 5.9734375 7 6 C6.67 7.98 6.34 9.96 6 12 C9.3 12 12.6 12 16 12 C16 13.65 16 15.3 16 17 C15.38511719 17.13535156 14.77023438 17.27070313 14.13671875 17.41015625 C9.32723811 18.51580254 9.32723811 18.51580254 5.875 21.72265625 C5.2404936 23.4783643 4.61961735 25.23898227 4 27 C2.68 27.33 1.36 27.66 0 28 C0 18.76 0 9.52 0 0 Z " fill="#050400" transform="translate(86,191)"/>
<path d="M0 0 C12.87 0 25.74 0 39 0 C39.66 1.32 40.32 2.64 41 4 C35.64176163 9.35823837 19.53813624 7.12893675 12.25 7.1875 C11.28545898 7.20055176 10.32091797 7.21360352 9.32714844 7.22705078 C8.4199707 7.22817871 7.51279297 7.22930664 6.578125 7.23046875 C5.76762695 7.23457764 4.95712891 7.23868652 4.12207031 7.24291992 C2 7 2 7 -1 5 C-0.67 3.35 -0.34 1.7 0 0 Z " fill="#0A0801" transform="translate(425,93)"/>
<path d="M0 0 C0.78532608 -0.00428513 1.57065216 -0.00857025 2.379776 -0.01298523 C4.03987667 -0.01872517 5.7000025 -0.01923125 7.36010742 -0.01489258 C9.89741024 -0.01173461 12.43354464 -0.0351876 14.97070312 -0.06054688 C16.58463395 -0.06282014 18.1985679 -0.06352324 19.8125 -0.0625 C20.56989975 -0.07170975 21.3272995 -0.08091949 22.10765076 -0.09040833 C25.279468 -0.06261198 27.63230325 0.12820463 30.48266602 1.57348633 C31.97265625 3.30078125 31.97265625 3.30078125 31.97265625 7.30078125 C18.26582403 7.42463817 4.65563477 7.12381755 -9.02734375 6.30078125 C-9.68734375 4.98078125 -10.34734375 3.66078125 -11.02734375 2.30078125 C-7.28594656 -0.19348355 -4.33341622 -0.00520066 0 0 Z " fill="#070500" transform="translate(435.02734375,103.69921875)"/>
<path d="M0 0 C14.52 0 29.04 0 44 0 C43 4 43 4 40 6 C37.03793651 6.18427243 34.17209245 6.2559673 31.2109375 6.23046875 C30.35190826 6.23001053 29.49287903 6.22955231 28.6078186 6.2290802 C26.79387021 6.22606083 24.97992433 6.21818395 23.16601562 6.20581055 C20.37881364 6.18752502 17.59194327 6.18530109 14.8046875 6.18554688 C13.04426794 6.18063274 11.28385064 6.17480488 9.5234375 6.16796875 C8.68493256 6.16685593 7.84642761 6.1657431 6.98251343 6.16459656 C1.11605613 6.11605613 1.11605613 6.11605613 0 5 C0 3.35 0 1.7 0 0 Z " fill="#050400" transform="translate(424,196)"/>
<path d="M0 0 C2.9375 0.375 2.9375 0.375 4.9375 2.375 C5.38109365 7.78684254 5.29763356 10.89482193 1.9375 15.375 C-0.9375 15.125 -0.9375 15.125 -4.0625 14.375 C-5.9588031 12.04771892 -6.06373599 10.36313451 -6.375 7.375 C-5.88418663 2.66319163 -4.86413325 0.59560815 0 0 Z " fill="#F5CF1E" transform="translate(164.0625,197.625)"/>
<path d="M0 0 C6.69724771 1.33944954 6.69724771 1.33944954 10 4 C10.8125 7.1875 10.8125 7.1875 11 10 C7.20559694 13.3480027 5.07693209 14.3076893 0 16 C0 10.72 0 5.44 0 0 Z " fill="#E6C31C" transform="translate(348,198)"/>
<path d="M0 0 C1.79244141 0.01740234 1.79244141 0.01740234 3.62109375 0.03515625 C5.41740234 0.04869141 5.41740234 0.04869141 7.25 0.0625 C8.17683594 0.07410156 9.10367187 0.08570313 10.05859375 0.09765625 C9.05460785 2.68088484 8.39427968 3.89127629 6 5.36328125 C5.21496094 5.688125 4.42992187 6.01296875 3.62109375 6.34765625 C2.83863281 6.6828125 2.05617188 7.01796875 1.25 7.36328125 C-0.94140625 8.09765625 -0.94140625 8.09765625 -3.94140625 8.09765625 C-3.98382348 5.7647085 -3.98233562 3.43063058 -3.94140625 1.09765625 C-2.94140625 0.09765625 -2.94140625 0.09765625 0 0 Z " fill="#080701" transform="translate(305.94140625,192.90234375)"/>
<path d="M0 0 C3.73487777 0.4979837 5.81237635 0.87491756 9 3 C9 3.66 9 4.32 9 5 C5.7 5.66 2.4 6.32 -1 7 C-0.67 4.69 -0.34 2.38 0 0 Z " fill="#EDC91D" transform="translate(285,196)"/>
<path d="M0 0 C4.455 0.99 4.455 0.99 9 2 C8.67 3.32 8.34 4.64 8 6 C5.36 6.33 2.72 6.66 0 7 C0 4.69 0 2.38 0 0 Z " fill="#E7C31D" transform="translate(285,207)"/>
<path d="M0 0 C1.75 1.4375 1.75 1.4375 2.75 5.4375 C-0.55 5.4375 -3.85 5.4375 -7.25 5.4375 C-7.25 4.4475 -7.25 3.4575 -7.25 2.4375 C-3.22368421 -0.80592105 -3.22368421 -0.80592105 0 0 Z " fill="#F2CD1E" transform="translate(333.25,197.5625)"/>
<path d="M0 0 C1 3 1 3 0.5 5.125 C-1 7 -1 7 -4.625 7.75 C-5.73875 7.8325 -6.8525 7.915 -8 8 C-5.33333333 5.33333333 -2.66666667 2.66666667 0 0 Z " fill="#EAC61D" transform="translate(190,201)"/>
</svg>
