<?xml version="1.0" encoding="UTF-8"?><svg id="Capa_1" xmlns="http://www.w3.org/2000/svg" viewBox="0 0 644.94 155.64"><path d="M128.44,129.13c-12.31,17.01-21.79,21.22-40.72,10.3-10.9-6.28-18.46-16.17-25.94-26.01-.79-1.04-1.53-2.12-2.25-3.12-22.63,5.74-39.49-9.24-44.81-25.67-7.13-21.99,1.48-42.48,21.11-50.95,13.56-5.85,26.76-5.92,39.51,2.37,18.51,12.04,22.97,44.5,8.17,60.82-2.9,3.2-4.21,5.68-.12,8.98,2.14,1.73,3.74,4.25,5.26,6.63,7.38,11.59,18.16,16.61,31.59,16.63,2.46,0,4.93,0,8.19,0Zm-58.78-40.67c3.56-6.28,5.59-13.18,4.54-20.7-1.4-10-6.83-16.78-16.6-19.8-7.25-2.24-18.1,1.38-23.32,8.07-8.46,10.85-3.62,34.78,15.21,37.52,8.18,1.19,9.77,.11,8.33-7.78-.64-3.53,1.24-4.2,3.48-3.16,2.87,1.34,5.3,3.65,8.35,5.85Z"/><path d="M239.2,27.89h17.43v44.85c4.85-5.91,9.67-11.49,14.12-17.35,1.86-2.45,3.41-3.74,6.81-3.34,4.86,.56,9.83,.14,15.77,.14-3.39,4.05-6.35,7.53-9.25,11.06-3.27,3.97-6.76,7.81-9.6,12.07-.81,1.22-.31,4.2,.69,5.57,6.86,9.36,14.02,18.5,21.53,28.3-6.77,.39-12.82,.86-18.88,.96-1.1,.02-2.48-1.27-3.29-2.31-5.11-6.51-10.09-13.13-15.47-20.16-6.7,6.62-1.67,14.94-4.06,21.79-5.09,.31-10.18,.62-15.8,.97V27.89Z"/><path d="M446.09,72.93c5.4-5.67,10.8-11.34,16.18-17.03,.85-.9,1.54-2.73,2.36-2.77,6.06-.24,12.12-.13,17.58-.13-6.75,7.7-13.96,15.92-20.89,23.82,8.25,11.42,15.9,22,24.18,33.45-6.75,0-12.49,.14-18.21-.12-1.12-.05-2.36-1.52-3.22-2.59-4.97-6.2-9.85-12.48-15.15-19.23-6.09,6.59-1.77,14.34-4.16,21.09h-14.8V27.21c5.33,.33,10.72,.67,16.97,1.07-.8,14.69-1.58,29.16-2.37,43.62l1.53,1.04Z"/><path d="M542.05,86.28h-41.08l-.98,1.65c1.86,2.04,3.37,4.65,5.64,5.99,5.87,3.46,12.41,3.78,17.91-.25,3.85-2.82,6.58-1.92,9.68,.2,2.15,1.47,4.09,3.25,6.11,4.89-8.92,11.28-27.05,15.94-38.51,10.03-11.18-5.77-23.25-21.04-18.25-35.8,4.1-12.1,15.49-23.99,31.95-21.81,18.16,2.4,24.99,11.35,27.52,35.1Zm-17.64-11.28c-1.53-6.61-6.23-9.83-13.11-9.5-6.45,.31-9.16,2.83-10.03,9.5h23.13Z"/><path d="M150.03,108.7c-4.8,.65-9.35,1.27-14.63,1.98-.33-1.42-.79-3.43-1.33-5.8-1.18,.61-2.36,1.09-3.4,1.77-15.81,10.3-31.96,2.73-33.13-16.11-.8-12.91-.15-25.9-.15-38.88h16.27c0,9.18-.07,17.95,.04,26.72,.03,2.8,.15,5.7,.88,8.38,1.44,5.28,6.36,8.24,11.49,7.37,3.93-.66,6.81-4.52,6.86-9.72,.1-10.94,.03-21.88,.03-32.78h17.07v57.07Z"/><path d="M351.58,30.11c-.5,6.1-.96,11.69-1.46,17.72h-19.36v62.3h-18.24V47.49h-21.4V30.11h60.47Z"/><path d="M624.41,69.6c-3.92-1.57-7.54-3.23-11.31-4.42-1.63-.52-3.73-.5-5.32,.08-1.34,.49-2.27,2.14-3.38,3.27,1.04,.94,1.93,2.31,3.15,2.73,3.44,1.19,7.13,1.73,10.52,3.03,3.83,1.47,7.96,2.87,11.06,5.4,7.72,6.3,6.9,18.36-1.77,25.19-9.8,7.72-20.98,8.62-31.97,3.27-12.72-6.19-9.93-5.42-4.2-14.33,.69-1.07,1.26-2.23,1.15-2.04,6.43,1.68,12.32,3.58,18.35,4.54,1.57,.25,3.61-2.43,5.44-3.77-1.5-1.31-2.79-3.14-4.54-3.8-2.44-.92-5.21-.94-7.83-1.4-10.75-1.9-17.41-8.56-17.42-17.4-.02-9.49,6.83-16.81,17.47-18.67,8.95-1.57,20.37,1.2,28.27,6.83-2.53,3.79-5.06,7.59-7.66,11.49Z"/><path d="M233.9,62.09c-2.93,3.57-5.83,7.1-8.72,10.63-8.86-7.38-17.58-7.63-24.22-.67-4.43,4.64-4.71,12.38-.62,16.82,6.37,6.91,13.7,6.78,22.32,.07,4.03,3.46,7.97,6.86,11.99,10.31-20.96,15.3-36.22,15.65-46.64,1.4-11.79-16.12-9.61-33.22,5.71-44.68,12.57-9.41,30.38-6.63,40.18,6.11Z"/><path d="M550.42,65.79c-2.23,.33-4.29,.64-6.89,1.04-.41-4.21-.83-8.56-1.3-13.38,3.29-.19,6.19-.35,9.5-.54v-15.77c6.06,.41,11.92,.82,17.88,1.22v14.15h11.79c-.42,5.19-.82,10.09-1.26,15.39-3.61-.67-6.82-1.26-10.33-1.91,0,8.27-.19,16.18,.07,24.08,.14,4.3,3.45,4.98,7.12,5.23,2.45,.17,5.96-1.14,6.37,3.5,.66,7.38-.18,10.05-4.91,11.35-12.91,3.54-27.07-.68-27.97-18.95-.41-8.27-.07-16.57-.07-25.41Z"/><path d="M424.48,98.35c-3.1,2.21-5.97,4.17-8.75,6.25-8.1,6.06-17.08,8-26.22,3.57-9.74-4.73-15.3-13.06-16.12-24.09-.85-11.44,1.81-21.35,11.89-28.37,6.17-4.29,12.81-5.51,19.88-4.01,4.85,1.03,9.66,2.61,14.17,4.64,1.55,.7,3.3,3.8,2.93,5.3-.85,3.42-2.79,6.63-4.71,9.67-.33,.52-2.82,.02-4.12-.5-2.74-1.07-5.23-3.07-8.03-3.61-7.96-1.55-15.13,3.69-15.89,11.14-.96,9.26,4.01,15.16,13.18,15.37,2.28,.05,4.67-.36,6.86-1.06,8.13-2.59,10.07-1.95,14.94,5.69Z"/><path d="M175.32,110.35h-16.54V52.18h16.54v58.17Z"/><path d="M351.78,52.95h16.26v56.45h-16.26V52.95Z"/><path d="M167.3,45.61c-7.1,.08-10.99-3.41-10.98-9.86,0-5.97,2.9-8.33,10.27-8.41,6.4-.07,11.82,3.46,11.72,7.62-.14,5.33-5.57,10.59-11.01,10.66Z"/><path d="M354.11,36.64c-.05-6.07,2.44-9.47,7.01-9.56,5.26-.11,11.32,4.2,11.24,7.99-.08,4.15-5.07,10.68-8.23,10.77-5.83,.17-9.97-3.63-10.02-9.2Z"/></svg>