<?xml version="1.0" standalone="no"?>
<!DOCTYPE svg PUBLIC "-//W3C//DTD SVG 20010904//EN"
 "http://www.w3.org/TR/2001/REC-SVG-20010904/DTD/svg10.dtd">
<svg version="1.0" xmlns="http://www.w3.org/2000/svg"
 width="512.000000pt" height="512.000000pt" viewBox="0 0 512.000000 512.000000"
 preserveAspectRatio="xMidYMid meet">

<g transform="translate(0.000000,512.000000) scale(0.100000,-0.100000)"
fill="#000000" stroke="none">
<path d="M2485 4706 c-16 -7 -37 -22 -46 -32 -10 -11 -155 -300 -324 -644
-169 -344 -310 -628 -314 -632 -3 -3 -321 -52 -706 -108 -501 -72 -709 -106
-730 -119 -67 -39 -97 -140 -61 -209 8 -15 216 -224 463 -464 246 -240 474
-463 506 -495 l57 -59 -120 -699 c-126 -738 -126 -734 -85 -793 27 -37 92 -65
141 -59 30 3 215 95 663 331 342 179 626 326 632 326 5 0 289 -147 631 -326
446 -235 632 -328 662 -331 50 -6 116 23 141 61 40 61 41 54 -85 790 l-120
700 57 59 c32 32 260 255 506 495 247 240 455 449 463 464 36 69 7 170 -61
210 -22 12 -224 45 -730 119 -385 56 -703 104 -706 108 -4 3 -145 287 -314
631 -169 344 -315 633 -324 644 -37 43 -134 59 -196 32z m345 -1039 c195 -391
272 -537 292 -551 31 -22 71 -29 756 -127 243 -35 442 -67 442 -70 0 -4 -187
-188 -415 -410 -228 -222 -422 -418 -430 -436 -8 -17 -15 -46 -15 -65 0 -18
43 -284 96 -592 52 -307 93 -560 90 -563 -2 -2 -238 118 -523 268 -456 240
-523 273 -563 273 -39 0 -109 -34 -563 -273 -285 -150 -521 -271 -523 -268 -3
3 38 256 90 563 53 308 96 574 96 592 0 19 -7 48 -15 65 -8 18 -202 214 -430
436 -228 222 -415 406 -415 410 0 3 260 44 577 90 318 45 590 89 605 97 14 7
35 24 45 37 10 13 133 256 273 540 140 284 257 517 260 517 3 0 124 -240 270
-533z"/>
</g>
</svg>
